<?xml version="1.0" encoding="UTF-8" standalone="no"?>
<!-- Created with Inkscape (http://www.inkscape.org/) -->

<svg
   xmlns:dc="http://purl.org/dc/elements/1.1/"
   xmlns:cc="http://creativecommons.org/ns#"
   xmlns:rdf="http://www.w3.org/1999/02/22-rdf-syntax-ns#"
   xmlns:svg="http://www.w3.org/2000/svg"
   xmlns="http://www.w3.org/2000/svg"
   xmlns:sodipodi="http://sodipodi.sourceforge.net/DTD/sodipodi-0.dtd"
   xmlns:inkscape="http://www.inkscape.org/namespaces/inkscape"
   sodipodi:docname="business_card_01.svg"
   inkscape:version="0.48.0 r9654"
   version="1.1"
   id="svg2992"
   height="50mm"
   width="90mm">
  <defs
     id="defs3" />
  <sodipodi:namedview
     id="base"
     pagecolor="#ffffff"
     bordercolor="#666666"
     borderopacity="1.0"
     inkscape:pageopacity="0.0"
     inkscape:pageshadow="2"
     inkscape:zoom="1"
     inkscape:cx="-213.67758"
     inkscape:cy="129.84038"
     inkscape:document-units="mm"
     inkscape:current-layer="layer1"
     showgrid="false"
     inkscape:window-width="1920"
     inkscape:window-height="999"
     inkscape:window-x="0"
     inkscape:window-y="24"
     inkscape:window-maximized="1">
    <inkscape:grid
       type="xygrid"
       id="grid3009" />
  </sodipodi:namedview>
  <metadata
     id="metadata2996">
    <rdf:RDF>
      <cc:Work
         rdf:about="">
        <dc:format>image/svg+xml</dc:format>
        <dc:type
           rdf:resource="http://purl.org/dc/dcmitype/StillImage" />
        <dc:title></dc:title>
      </cc:Work>
    </rdf:RDF>
  </metadata>
  <g
     inkscape:label="Layer 1"
     inkscape:groupmode="layer"
     id="layer1">
    <path
       sodipodi:type="arc"
       style="fill:#6a6a6a;fill-opacity:1;stroke:none"
       id="path3856"
       sodipodi:cx="62.25"
       sodipodi:cy="13.415359"
       sodipodi:rx="4.75"
       sodipodi:ry="5.25"
       d="m 67,13.415359 a 4.75,5.25 0 1 1 -9.5,0 4.75,5.25 0 1 1 9.5,0 z"
       transform="translate(50.25,9.5)" />
    <path
       transform="translate(108.5,13.500001)"
       sodipodi:type="arc"
       style="fill:#6a6a6a;fill-opacity:1;stroke:none"
       id="path3856-4"
       sodipodi:cx="62.25"
       sodipodi:cy="13.415359"
       sodipodi:rx="7.75"
       sodipodi:ry="6.25"
       d="m 70,13.415359 a 7.75,6.25 0 1 1 -15.5,0 7.75,6.25 0 1 1 15.5,0 z" />
    <path
       transform="translate(98.5,10.250001)"
       sodipodi:type="arc"
       style="fill:#6a6a6a;fill-opacity:1;stroke:none"
       id="path3856-7"
       sodipodi:cx="62.25"
       sodipodi:cy="13.415359"
       sodipodi:rx="4.75"
       sodipodi:ry="5.25"
       d="m 67,13.415359 a 4.75,5.25 0 1 1 -9.5,0 4.75,5.25 0 1 1 9.5,0 z" />
    <path
       transform="translate(92.75,14.500001)"
       sodipodi:type="arc"
       style="fill:#6a6a6a;fill-opacity:1;stroke:none"
       id="path3856-9"
       sodipodi:cx="62.25"
       sodipodi:cy="13.415359"
       sodipodi:rx="4.75"
       sodipodi:ry="5.25"
       d="m 67,13.415359 a 4.75,5.25 0 1 1 -9.5,0 4.75,5.25 0 1 1 9.5,0 z" />
    <path
       transform="translate(87.25,10.750001)"
       sodipodi:type="arc"
       style="fill:#6a6a6a;fill-opacity:1;stroke:none"
       id="path3856-0"
       sodipodi:cx="62.25"
       sodipodi:cy="13.415359"
       sodipodi:rx="4.75"
       sodipodi:ry="5.25"
       d="m 67,13.415359 a 4.75,5.25 0 1 1 -9.5,0 4.75,5.25 0 1 1 9.5,0 z" />
    <path
       transform="translate(82.75,14.500001)"
       sodipodi:type="arc"
       style="fill:#6a6a6a;fill-opacity:1;stroke:none"
       id="path3856-6"
       sodipodi:cx="62.25"
       sodipodi:cy="13.415359"
       sodipodi:rx="4.75"
       sodipodi:ry="5.25"
       d="m 67,13.415359 a 4.75,5.25 0 1 1 -9.5,0 4.75,5.25 0 1 1 9.5,0 z" />
    <path
       transform="translate(77.75,8.250001)"
       sodipodi:type="arc"
       style="fill:#6a6a6a;fill-opacity:1;stroke:none"
       id="path3856-68"
       sodipodi:cx="62.25"
       sodipodi:cy="13.415359"
       sodipodi:rx="4.75"
       sodipodi:ry="5.25"
       d="m 67,13.415359 a 4.75,5.25 0 1 1 -9.5,0 4.75,5.25 0 1 1 9.5,0 z" />
    <path
       transform="translate(70.5,12.000001)"
       sodipodi:type="arc"
       style="fill:#6a6a6a;fill-opacity:1;stroke:none"
       id="path3856-5"
       sodipodi:cx="62.25"
       sodipodi:cy="13.415359"
       sodipodi:rx="4.75"
       sodipodi:ry="5.25"
       d="m 67,13.415359 a 4.75,5.25 0 1 1 -9.5,0 4.75,5.25 0 1 1 9.5,0 z" />
    <path
       transform="translate(66,7.500001)"
       sodipodi:type="arc"
       style="fill:#6a6a6a;fill-opacity:1;stroke:none"
       id="path3856-09"
       sodipodi:cx="62.25"
       sodipodi:cy="13.415359"
       sodipodi:rx="4.75"
       sodipodi:ry="5.25"
       d="m 67,13.415359 a 4.75,5.25 0 1 1 -9.5,0 4.75,5.25 0 1 1 9.5,0 z" />
    <path
       transform="translate(59.25,11.000001)"
       sodipodi:type="arc"
       style="fill:#6a6a6a;fill-opacity:1;stroke:none"
       id="path3856-76"
       sodipodi:cx="62.25"
       sodipodi:cy="13.415359"
       sodipodi:rx="4.75"
       sodipodi:ry="5.25"
       d="m 67,13.415359 a 4.75,5.25 0 1 1 -9.5,0 4.75,5.25 0 1 1 9.5,0 z" />
    <path
       transform="translate(54.75,17.500001)"
       sodipodi:type="arc"
       style="fill:#6a6a6a;fill-opacity:1;stroke:none"
       id="path3856-08"
       sodipodi:cx="62.25"
       sodipodi:cy="13.415359"
       sodipodi:rx="4.75"
       sodipodi:ry="5.25"
       d="m 67,13.415359 a 4.75,5.25 0 1 1 -9.5,0 4.75,5.25 0 1 1 9.5,0 z" />
    <path
       transform="translate(45,7.750001)"
       sodipodi:type="arc"
       style="fill:#6a6a6a;fill-opacity:1;stroke:none"
       id="path3856-099"
       sodipodi:cx="62.25"
       sodipodi:cy="13.415359"
       sodipodi:rx="4.75"
       sodipodi:ry="5.25"
       d="m 67,13.415359 a 4.75,5.25 0 1 1 -9.5,0 4.75,5.25 0 1 1 9.5,0 z" />
    <path
       transform="translate(-6,11.500001)"
       sodipodi:type="arc"
       style="fill:#6a6a6a;fill-opacity:1;stroke:none"
       id="path3856-48"
       sodipodi:cx="62.25"
       sodipodi:cy="13.415359"
       sodipodi:rx="4.75"
       sodipodi:ry="5.25"
       d="m 67,13.415359 a 4.75,5.25 0 1 1 -9.5,0 4.75,5.25 0 1 1 9.5,0 z" />
    <path
       transform="translate(31,13.750001)"
       sodipodi:type="arc"
       style="fill:#6a6a6a;fill-opacity:1;stroke:none"
       id="path3856-72"
       sodipodi:cx="62.25"
       sodipodi:cy="13.415359"
       sodipodi:rx="4.75"
       sodipodi:ry="5.25"
       d="m 67,13.415359 a 4.75,5.25 0 1 1 -9.5,0 4.75,5.25 0 1 1 9.5,0 z" />
    <path
       transform="matrix(1.4210526,0,0,0.66666667,-40.210526,22.471787)"
       sodipodi:type="arc"
       style="fill:#6a6a6a;fill-opacity:1;stroke:none"
       id="path3856-481"
       sodipodi:cx="62.25"
       sodipodi:cy="13.415359"
       sodipodi:rx="4.75"
       sodipodi:ry="5.25"
       d="m 67,13.415359 a 4.75,5.25 0 1 1 -9.5,0 4.75,5.25 0 1 1 9.5,0 z" />
    <path
       transform="matrix(1.3421053,0,0,1.4285714,-0.67105296,8.500562)"
       sodipodi:type="arc"
       style="fill:#6a6a6a;fill-opacity:1;stroke:none"
       id="path3856-480"
       sodipodi:cx="62.25"
       sodipodi:cy="13.415359"
       sodipodi:rx="4.75"
       sodipodi:ry="5.25"
       d="m 67,13.415359 a 4.75,5.25 0 1 1 -9.5,0 4.75,5.25 0 1 1 9.5,0 z" />
    <path
       transform="matrix(1.8947368,0,0,1,-20.947368,7.0000009)"
       sodipodi:type="arc"
       style="fill:#6a6a6a;fill-opacity:1;stroke:none"
       id="path3856-63"
       sodipodi:cx="62.25"
       sodipodi:cy="13.415359"
       sodipodi:rx="4.75"
       sodipodi:ry="5.25"
       d="m 67,13.415359 a 4.75,5.25 0 1 1 -9.5,0 4.75,5.25 0 1 1 9.5,0 z" />
    <path
       transform="matrix(1.4736842,0,0,1.2857143,-65.340395,13.61374)"
       sodipodi:type="arc"
       style="fill:#6a6a6a;fill-opacity:1;stroke:none"
       id="path3856-66"
       sodipodi:cx="62.25"
       sodipodi:cy="13.415359"
       sodipodi:rx="4.75"
       sodipodi:ry="5.25"
       d="m 67,13.415359 a 4.75,5.25 0 1 1 -9.5,0 4.75,5.25 0 1 1 9.5,0 z" />
    <path
       transform="matrix(1.7368421,0,0,1,-73.721974,13.275127)"
       sodipodi:type="arc"
       style="fill:#6a6a6a;fill-opacity:1;stroke:none"
       id="path3856-3"
       sodipodi:cx="62.25"
       sodipodi:cy="13.415359"
       sodipodi:rx="4.75"
       sodipodi:ry="5.25"
       d="m 67,13.415359 a 4.75,5.25 0 1 1 -9.5,0 4.75,5.25 0 1 1 9.5,0 z" />
    <path
       transform="translate(-19.25,13.250001)"
       sodipodi:type="arc"
       style="fill:#6a6a6a;fill-opacity:1;stroke:none"
       id="path3856-30"
       sodipodi:cx="62.25"
       sodipodi:cy="13.415359"
       sodipodi:rx="4.75"
       sodipodi:ry="5.25"
       d="m 67,13.415359 a 4.75,5.25 0 1 1 -9.5,0 4.75,5.25 0 1 1 9.5,0 z" />
    <path
       transform="matrix(1.9473684,0,0,0.95238091,-49.723684,11.138828)"
       sodipodi:type="arc"
       style="fill:#6a6a6a;fill-opacity:1;stroke:none"
       id="path3856-1"
       sodipodi:cx="62.25"
       sodipodi:cy="13.415359"
       sodipodi:rx="4.75"
       sodipodi:ry="5.25"
       d="m 67,13.415359 a 4.75,5.25 0 1 1 -9.5,0 4.75,5.25 0 1 1 9.5,0 z" />
    <path
       transform="matrix(1.5263158,0,0,1.047619,-32.513158,16.111174)"
       sodipodi:type="arc"
       style="fill:#6a6a6a;fill-opacity:1;stroke:none"
       id="path3856-661"
       sodipodi:cx="62.25"
       sodipodi:cy="13.415359"
       sodipodi:rx="4.75"
       sodipodi:ry="5.25"
       d="m 67,13.415359 a 4.75,5.25 0 1 1 -9.5,0 4.75,5.25 0 1 1 9.5,0 z" />
    <path
       transform="matrix(0,1,-1,0,63.665359,-37.83464)"
       sodipodi:type="arc"
       style="fill:#6a6a6a;fill-opacity:1;stroke:none"
       id="path3856-08-6"
       sodipodi:cx="62.25"
       sodipodi:cy="13.415359"
       sodipodi:rx="4.75"
       sodipodi:ry="5.25"
       d="m 67,13.415359 a 4.75,5.25 0 1 1 -9.5,0 4.75,5.25 0 1 1 9.5,0 z" />
    <path
       sodipodi:type="arc"
       style="fill:#6a6a6a;fill-opacity:1;stroke:none"
       id="path3856-71"
       sodipodi:cx="62.25"
       sodipodi:cy="13.415359"
       sodipodi:rx="4.75"
       sodipodi:ry="5.25"
       d="m 67,13.415359 a 4.75,5.25 0 1 1 -9.5,0 4.75,5.25 0 1 1 9.5,0 z"
       transform="translate(-45.125,21.124999)" />
    <path
       transform="translate(-42.228553,9.4859127)"
       sodipodi:type="arc"
       style="fill:#6a6a6a;fill-opacity:1;stroke:none"
       id="path3856-76-0"
       sodipodi:cx="62.25"
       sodipodi:cy="13.415359"
       sodipodi:rx="4.75"
       sodipodi:ry="5.25"
       d="m 67,13.415359 a 4.75,5.25 0 1 1 -9.5,0 4.75,5.25 0 1 1 9.5,0 z" />
    <path
       transform="translate(38.586571,15.508883)"
       sodipodi:type="arc"
       style="fill:#6a6a6a;fill-opacity:1;stroke:none"
       id="path3856-099-3"
       sodipodi:cx="62.25"
       sodipodi:cy="13.415359"
       sodipodi:rx="4.75"
       sodipodi:ry="5.25"
       d="m 67,13.415359 a 4.75,5.25 0 1 1 -9.5,0 4.75,5.25 0 1 1 9.5,0 z" />
    <path
       transform="translate(-56.875,20.125)"
       sodipodi:type="arc"
       style="fill:#6a6a6a;fill-opacity:1;stroke:none"
       id="path3856-72-0"
       sodipodi:cx="62.25"
       sodipodi:cy="13.415359"
       sodipodi:rx="4.75"
       sodipodi:ry="5.25"
       d="m 67,13.415359 a 4.75,5.25 0 1 1 -9.5,0 4.75,5.25 0 1 1 9.5,0 z" />
    <path
       transform="matrix(1.8947368,0,0,1,-108.73353,13.68566)"
       sodipodi:type="arc"
       style="fill:#6a6a6a;fill-opacity:1;stroke:none"
       id="path3856-63-3"
       sodipodi:cx="62.25"
       sodipodi:cy="13.415359"
       sodipodi:rx="4.75"
       sodipodi:ry="5.25"
       d="m 67,13.415359 a 4.75,5.25 0 1 1 -9.5,0 4.75,5.25 0 1 1 9.5,0 z" />
    <text
       xml:space="preserve"
       style="font-size:32px;font-style:normal;font-variant:normal;font-weight:bold;font-stretch:normal;text-align:end;line-height:125%;letter-spacing:0px;word-spacing:0px;writing-mode:lr-tb;text-anchor:end;fill:#000000;fill-opacity:1;stroke:none;font-family:Ubuntu;-inkscape-font-specification:Ubuntu Bold"
       x="295.5"
       y="102.66536"
       id="text2999"
       sodipodi:linespacing="125%"><tspan
         sodipodi:role="line"
         id="tspan3001"
         x="295.5"
         y="102.66536"
         style="font-size:32px;font-style:normal;font-variant:normal;font-weight:bold;font-stretch:normal;text-align:end;line-height:125%;writing-mode:lr-tb;text-anchor:end;font-family:Ubuntu;-inkscape-font-specification:Ubuntu Bold">Gergely Imreh</tspan></text>
    <text
       xml:space="preserve"
       style="font-size:18px;font-style:normal;font-variant:normal;font-weight:normal;font-stretch:normal;text-align:end;line-height:125%;letter-spacing:0px;word-spacing:0px;writing-mode:lr;text-anchor:end;fill:#000000;fill-opacity:1;stroke:none;font-family:Ubuntu;-inkscape-font-specification:Ubuntu"
       x="294.5"
       y="137.16536"
       id="text3003"
       sodipodi:linespacing="125%"><tspan
         sodipodi:role="line"
         id="tspan3005"
         x="294.5"
         y="137.16536"
         style="font-size:18px;font-style:normal;font-variant:normal;font-weight:normal;font-stretch:normal;text-align:end;line-height:125%;writing-mode:lr;text-anchor:end;font-family:Ubuntu;-inkscape-font-specification:Ubuntu">imrehg@gmail.com</tspan><tspan
         sodipodi:role="line"
         x="294.5"
         y="157.16536"
         id="tspan3007"
         style="font-size:18px;font-style:normal;font-variant:normal;font-weight:normal;font-stretch:normal;text-align:end;line-height:125%;writing-mode:lr;text-anchor:end;font-family:Ubuntu;-inkscape-font-specification:Ubuntu">(+886) 932-192-631</tspan></text>
    <g
       id="g5012"
       transform="translate(1.9445437,2.298097)">
      <path
         sodipodi:nodetypes="cccccccccccccccccc"
         inkscape:connector-curvature="0"
         id="path3038"
         d="m 241.08947,24.092137 c -12.5,-10 -30,-10 -42.5,-7.5 -2.5,-5 -5,-6.25 -10,-7.4999999 l 6.25,-1.2500004 -25,0 7.5,1.2500004 c 6.25335,1.6532799 8.44636,2.0479099 13.75,7.4999999 -5,-1.25 -7.24884,-1.17596 -11.25,1.25 l -5,-2.5 0,17.5 5,-2.5 c 3.75,2.5 6.25,2.5 11.25,1.25 -2.56661,4.81226 -6.17366,8.86153 -13.75,10 l -7.5,1.25 25,0 -6.25,-1.25 10,-10 c 12.5,2.5 30,2.5 42.5,-7.5 z"
         style="fill:#000000;fill-opacity:1;stroke:#000000;stroke-width:0.125px;stroke-linecap:butt;stroke-linejoin:miter;stroke-opacity:1" />
      <path
         transform="matrix(0,0.125,-0.125,0,268.67027,7.66536)"
         d="m 150,372.36218 c 0,11.0457 -8.95431,20 -20,20 -11.04569,0 -20,-8.9543 -20,-20 0,-11.04569 8.95431,-20 20,-20 11.04569,0 20,8.95431 20,20 z"
         sodipodi:ry="20"
         sodipodi:rx="20"
         sodipodi:cy="372.36218"
         sodipodi:cx="130"
         id="path3810"
         style="fill:none;stroke:#ffffff;stroke-width:5;stroke-miterlimit:4;stroke-opacity:1;stroke-dasharray:none"
         sodipodi:type="arc" />
      <path
         transform="matrix(0,0.125,-0.125,0,258.67027,7.66536)"
         d="m 150,372.36218 c 0,11.0457 -8.95431,20 -20,20 -11.04569,0 -20,-8.9543 -20,-20 0,-11.04569 8.95431,-20 20,-20 11.04569,0 20,8.95431 20,20 z"
         sodipodi:ry="20"
         sodipodi:rx="20"
         sodipodi:cy="372.36218"
         sodipodi:cx="130"
         id="path3810-7"
         style="fill:none;stroke:#ffffff;stroke-width:5;stroke-miterlimit:4;stroke-opacity:1;stroke-dasharray:none"
         sodipodi:type="arc" />
    </g>
  </g>
</svg>
