<?xml version="1.0" encoding="UTF-8" standalone="no"?>
<!-- Created with Inkscape (http://www.inkscape.org/) -->

<svg
   xmlns:dc="http://purl.org/dc/elements/1.1/"
   xmlns:cc="http://creativecommons.org/ns#"
   xmlns:rdf="http://www.w3.org/1999/02/22-rdf-syntax-ns#"
   xmlns:svg="http://www.w3.org/2000/svg"
   xmlns="http://www.w3.org/2000/svg"
   xmlns:sodipodi="http://sodipodi.sourceforge.net/DTD/sodipodi-0.dtd"
   xmlns:inkscape="http://www.inkscape.org/namespaces/inkscape"
   width="325.98425"
   height="184.25197"
   id="svg5444"
   version="1.1"
   inkscape:version="0.48.1 r9760"
   sodipodi:docname="business_card_08back.svg">
  <defs
     id="defs3" />
  <sodipodi:namedview
     id="base"
     pagecolor="#ffffff"
     bordercolor="#666666"
     borderopacity="1.0"
     inkscape:pageopacity="0.0"
     inkscape:pageshadow="2"
     inkscape:zoom="1"
     inkscape:cx="-103.9689"
     inkscape:cy="88.906638"
     inkscape:document-units="mm"
     inkscape:current-layer="layer1"
     showgrid="false"
     inkscape:window-width="1920"
     inkscape:window-height="1003"
     inkscape:window-x="0"
     inkscape:window-y="24"
     inkscape:window-maximized="1"
     units="mm" />
  <metadata
     id="metadata5448">
    <rdf:RDF>
      <cc:Work
         rdf:about="">
        <dc:format>image/svg+xml</dc:format>
        <dc:type
           rdf:resource="http://purl.org/dc/dcmitype/StillImage" />
        <dc:title></dc:title>
      </cc:Work>
    </rdf:RDF>
  </metadata>
  <g
     inkscape:label="Layer 1"
     inkscape:groupmode="layer"
     id="layer1"
     transform="translate(0,7.0865823)">
    <path
       inkscape:connector-curvature="0"
       style="fill:#ffffff;stroke:none"
       d="m 30.62697,25.792358 0,120.746052 120.74605,0 0,-120.746052 -120.74605,0 z"
       id="path3123" />
    <path
       inkscape:connector-curvature="0"
       style="fill:#000000;stroke:none"
       d="m 32.99454,28.159928 0,16.572988 16.57299,0 0,-16.572988 -16.57299,0 m 18.94056,0 0,4.735142 2.36757,0 0,-2.36757 2.36756,0 0,-2.367572 -4.73513,0 m 11.83785,0 0,2.367572 -4.73514,0 0,2.36757 -2.36758,0 0,14.205415 -2.36756,0 0,-9.470275 -2.36757,0 0,11.837845 -2.36757,0 0,-2.36757 -4.73515,0 0,7.10271 -2.36757,0 0,-2.36757 -2.36756,0 0,2.36757 2.36756,0 0,4.735139 -2.36756,0 0,-2.367569 -2.36757,0 0,-4.73514 -2.36756,0 0,-2.36757 4.73514,0 0,-2.36757 -7.10271,0 0,4.73514 2.36757,0 0,2.36757 -2.36757,0 0,11.837849 4.73513,0 0,7.102707 2.36758,0 0,4.735141 2.36756,0 0,18.940561 2.36758,0 0,2.367565 -4.73515,0 0,7.102722 -7.10271,0 0,2.36756 2.36757,0 0,2.36756 2.36756,0 0,-2.36756 2.36758,0 0,-2.36756 4.73513,0 0,7.10269 -2.36757,0 0,-2.36757 -2.36756,0 0,2.36757 -7.10271,0 0,4.73514 2.36757,0 0,4.73514 -2.36757,0 0,2.36757 7.10271,0 0,-2.36757 2.36756,0 0,-2.36756 -4.73514,0 0,-2.36758 7.10271,0 0,2.36758 4.73515,0 0,-2.36758 -2.36757,0 0,-2.36757 7.10271,0 0,2.36757 2.36756,0 0,4.73514 -2.36756,0 0,-2.36756 -2.36756,0 0,7.1027 2.36756,0 0,2.36757 -2.36756,0 0,2.36758 4.73513,0 0,2.36757 -2.36756,0 0,2.36756 -2.36757,0 0,7.10271 2.36757,0 0,-2.36757 2.36756,0 0,-7.1027 2.36758,0 0,-4.73515 -2.36758,0 0,-2.36757 -2.36756,0 0,-2.36757 2.36756,0 0,-2.36757 4.73514,0 0,2.36757 -2.36756,0 0,2.36757 2.36756,0 0,2.36757 2.36757,0 0,-2.36757 2.36757,0 0,-2.36757 7.1027,0 0,-4.73513 2.36757,0 0,7.1027 -4.73515,0 0,4.73515 -2.36756,0 0,-2.36758 -2.36756,0 0,2.36758 2.36756,0 0,4.73513 -2.36756,0 0,2.36758 2.36756,0 0,2.36756 2.36756,0 0,2.36757 2.36758,0 0,-2.36757 2.36757,0 0,-2.36756 2.36758,0 0,2.36756 2.36756,0 0,-2.36756 4.73514,0 0,2.36756 2.36757,0 0,-2.36756 2.36756,0 0,2.36756 4.73515,0 0,2.36757 4.73514,0 0,-2.36757 -4.73514,0 0,-4.73514 2.36757,0 0,2.36758 7.1027,0 0,2.36756 -2.36756,0 0,2.36757 4.73514,0 0,-2.36757 2.36757,0 0,-7.1027 2.36758,0 0,2.36756 2.36756,0 0,-2.36756 2.36756,0 0,4.73514 -2.36756,0 0,2.36756 -2.36756,0 0,2.36757 2.36756,0 0,-2.36757 2.36756,0 0,2.36757 4.73514,0 0,-2.36757 2.36757,0 0,2.36757 4.73514,0 0,-4.73513 2.36757,0 0,4.73513 9.4703,0 0,-2.36757 -7.10272,0 0,-2.36756 -2.36758,0 0,-2.36758 -2.36757,0 0,-2.36756 4.73514,0 0,2.36756 2.36757,0 0,2.36758 2.36758,0 0,-2.36758 -2.36758,0 0,-2.36756 14.20542,0 0,-2.36757 -2.36757,0 0,-4.73515 -4.73514,0 0,-2.36757 2.36758,0 0,-2.36757 2.36757,0 0,2.36757 2.36757,0 0,-2.36757 -2.36757,0 0,-7.10271 -7.1027,0 0,-2.36757 -2.36758,0 0,2.36757 -4.73514,0 0,-4.73514 -2.36758,0 0,-7.1027 2.36758,0 0,4.73514 4.73514,0 0,-2.36756 2.36758,0 0,2.36756 2.36756,0 0,2.36756 4.73514,0 0,2.36757 2.36757,0 0,-2.36757 -2.36757,0 0,-4.73512 -2.36757,0 0,-2.36758 4.73513,0 0,-2.36757 -4.73513,0 0,2.36757 -2.36758,0 0,2.36758 -2.36756,0 0,-4.73515 -2.36757,0 0,2.36757 -4.73515,0 0,-4.735142 4.73515,0 0,-2.367565 2.36757,0 0,-2.36757 2.36756,0 0,4.735135 4.73514,0 0,-7.102707 -2.36756,0 0,-2.367571 2.36756,0 0,-2.36757 2.36757,0 0,-2.36757 -2.36757,0 0,-2.367569 -2.36756,0 0,-4.735139 2.36756,0 0,-4.735141 2.36757,0 0,-2.367568 -2.36757,0 0,-2.367571 2.36757,0 0,-2.367568 -2.36757,0 0,-2.367571 2.36757,0 0,-2.367569 -4.73513,0 0,-2.36757 -2.36758,0 0,-2.367569 2.36758,0 0,-2.36757 2.36757,0 0,-4.73514 2.36757,0 0,-2.36757 -4.73513,0 0,2.36757 -4.73514,0 0,-2.36757 -11.83786,0 0,-2.367569 2.36758,0 0,-2.367568 -2.36758,0 0,2.367568 -2.36756,0 0,-4.735137 -2.36758,0 0,-2.367569 -2.36757,0 0,2.367569 -2.36757,0 0,4.735137 -2.36758,0 0,-7.102706 2.36758,0 0,-2.367571 4.73513,0 0,-2.367569 2.36759,0 0,4.73514 2.36756,0 0,-2.367571 2.36758,0 0,-7.102711 -2.36758,0 0,2.367572 -4.73514,0 0,-2.367572 -4.73514,0 0,2.367572 -2.36757,0 0,-2.367572 -9.47027,0 0,2.367572 2.36757,0 0,2.36757 4.73513,0 0,2.367569 -2.36756,0 0,2.367571 -4.73514,0 0,-2.367571 -2.36757,0 0,-4.735139 -2.36757,0 0,-2.367572 -2.36757,0 0,4.735142 -4.73514,0 0,-2.36757 2.36758,0 0,-2.367572 -2.36758,0 0,2.367572 -2.36757,0 0,-2.367572 -2.36758,0 0,4.735142 -2.36756,0 0,2.367569 -2.36757,0 0,-7.102711 -4.73514,0 0,2.367572 2.36757,0 0,7.10271 -7.10272,0 0,2.367569 7.10272,0 0,2.367569 -2.36757,0 0,4.735137 -2.36756,0 0,-4.735137 -2.36759,0 0,4.735137 -2.36756,0 0,-7.102706 -2.36758,0 0,4.735137 -2.36756,0 0,-7.102706 -2.36757,0 0,11.837845 2.36757,0 0,-2.36757 2.36756,0 0,4.73514 2.36758,0 0,2.36757 2.36756,0 0,2.36757 -4.73514,0 0,-2.36757 -4.73513,0 0,2.36757 2.36757,0 0,2.367569 4.73514,0 0,2.36757 -4.73514,0 0,4.73514 -2.36757,0 0,-2.367571 -9.47028,0 0,-2.367569 4.73514,0 0,-2.36757 2.36757,0 0,-2.367569 -2.36757,0 0,-2.36757 2.36757,0 0,-2.36757 -2.36757,0 0,-2.36757 -4.73514,0 0,-2.36757 2.36758,0 0,-4.735137 2.36756,0 0,2.367568 2.36757,0 0,-4.735137 -2.36757,0 0,-2.367569 -2.36756,0 0,-2.367571 4.73513,0 0,-4.735139 4.73514,0 0,-2.367572 -4.73514,0 m 11.83784,0 0,2.367572 -4.73514,0 0,2.36757 -4.73513,0 0,2.367569 4.73513,0 0,-2.367569 2.36758,0 0,2.367569 7.10271,0 0,-2.367569 -4.73515,0 0,-2.36757 2.36759,0 0,-2.367572 -2.36759,0 m 56.82168,0 0,16.572988 16.57299,0 0,-16.572988 -16.57299,0 z"
       id="path3125" />
    <path
       inkscape:connector-curvature="0"
       style="fill:#ffffff;stroke:none"
       d="m 35.36211,30.5275 0,11.837848 11.83785,0 0,-11.837848 -11.83785,0 m 78.1298,0 0,2.36757 2.36756,0 0,-2.36757 -2.36756,0 m 7.1027,0 0,2.36757 2.36757,0 0,-2.36757 -2.36757,0 m 14.20542,0 0,11.837848 11.83785,0 0,-11.837848 -11.83785,0 z"
       id="path3127" />
    <path
       inkscape:connector-curvature="0"
       style="fill:#000000;stroke:none"
       d="m 37.72967,32.89507 0,7.102709 7.10271,0 0,-7.102709 -7.10271,0 m 99.43794,0 0,7.102709 7.10271,0 0,-7.102709 -7.10271,0 z"
       id="path3129" />
    <path
       inkscape:connector-curvature="0"
       style="fill:#ffffff;stroke:none"
       d="m 87.44864,35.262639 0,2.367571 4.73515,0 0,-2.367571 -4.73515,0 m 7.10271,0 0,2.367571 2.36757,0 0,7.102706 2.36757,0 0,2.367569 -2.36757,0 0,2.36757 2.36757,0 0,4.73514 -2.36757,0 0,2.36757 -2.36757,0 0,-2.36757 -2.36756,0 0,-2.36757 2.36756,0 0,-2.36757 -2.36756,0 0,2.36757 -2.36759,0 0,-2.36757 -4.73513,0 0,2.36757 -2.36757,0 0,-4.73514 2.36757,0 0,-4.735137 -2.36757,0 0,4.735137 -2.36757,0 0,4.73514 2.36757,0 0,2.36757 -4.73513,0 0,-2.36757 -2.36758,0 0,-2.36757 -2.36757,0 0,2.36757 2.36757,0 0,2.36757 2.36758,0 0,2.36757 4.73513,0 0,-2.36757 2.36757,0 0,2.36757 2.36757,0 0,-4.73514 2.36756,0 0,4.73514 2.36759,0 0,2.367569 -4.73515,0 0,2.36757 2.36756,0 0,4.73514 -2.36756,0 0,-2.367571 -2.36757,0 0,2.367571 -2.36757,0 0,-7.10271 -7.10271,0 0,4.735139 -4.73515,0 0,4.735139 -4.73512,0 0,2.367571 2.36756,0 0,2.367568 -2.36756,0 0,2.367571 2.36756,0 0,2.36757 -2.36756,0 0,2.367569 2.36756,0 0,2.36757 2.36756,0 0,-2.36757 4.73515,0 0,2.36757 -2.36757,0 0,2.367569 2.36757,0 0,-2.367569 2.36758,0 0,2.367569 2.36756,0 0,2.367571 -14.20541,0 0,-4.735139 -2.36757,0 0,-2.367571 -2.36757,0 0,-2.367569 -4.73515,0 0,-2.36757 -2.36756,0 0,-2.367571 4.73514,0 0,2.367571 4.73514,0 0,-2.367571 -4.73514,0 0,-2.367568 4.73514,0 0,-2.367571 -4.73514,0 0,2.367571 -2.36758,0 0,-2.367571 -4.73513,0 0,-2.367568 -2.36757,0 0,-2.367571 2.36757,0 0,-4.735139 2.36757,0 0,-2.367569 2.36756,0 0,2.367569 2.36758,0 0,-7.102709 -2.36758,0 0,-2.36757 -2.36756,0 0,2.36757 2.36756,0 0,2.36757 -4.73513,0 0,2.36757 -2.36757,0 0,-2.36757 -4.73515,0 0,4.735139 -2.36757,0 0,2.36757 7.10272,0 0,2.367569 -2.36757,0 0,2.367571 2.36757,0 0,2.367568 -7.10272,0 0,-2.367568 2.36757,0 0,-2.367571 -7.10271,0 0,2.367571 2.36758,0 0,7.102707 4.73513,0 0,2.367571 -2.36757,0 0,2.36757 4.73515,0 0,2.367569 7.10271,0 0,2.36757 2.36756,0 0,2.367569 -2.36756,0 0,2.367571 7.10271,0 0,4.73514 -2.36757,0 0,2.367572 -2.36758,0 0,-2.367572 -9.47027,0 0,2.367572 -2.36758,0 0,2.36757 2.36758,0 0,2.367565 -2.36758,0 0,2.367572 -2.36757,0 0,2.36757 7.10272,0 0,-2.36757 2.36757,0 0,2.36757 2.36757,0 0,-4.735142 2.36756,0 0,7.102722 -9.47027,0 0,2.36756 7.10271,0 0,2.36756 -7.10271,0 0,2.36757 7.10271,0 0,2.36757 2.36756,0 0,2.36757 2.36758,0 0,-7.10271 2.36757,0 0,-4.73512 4.73514,0 0,2.36756 4.73512,0 0,2.36756 -4.73512,0 0,2.36757 2.36756,0 0,2.36757 -2.36756,0 0,2.36757 -4.73514,0 0,2.36758 2.36757,0 0,2.36756 7.10269,0 0,-2.36756 2.36758,0 0,-2.36758 -4.73514,0 0,-2.36757 4.73514,0 0,-4.73514 2.36757,0 0,2.36757 2.36758,0 0,-2.36757 -2.36758,0 0,-2.36756 2.36758,0 0,-2.36756 -2.36758,0 0,-4.73515 9.47028,0 0,-4.735137 2.36757,0 0,2.367565 2.36756,0 0,-7.102707 -4.73513,0 0,2.367572 -2.36757,0 0,-2.367572 -2.36757,0 0,2.367572 -2.36756,0 0,-2.367572 -4.73515,0 0,-2.367571 11.83785,0 0,-7.102708 -2.36757,0 0,-2.367571 2.36757,0 0,-2.367569 -4.73514,0 0,-2.36757 2.36757,0 0,-2.36757 -7.10271,0 0,-9.470278 4.73514,0 0,2.36757 2.36757,0 0,2.367569 -2.36757,0 0,2.36757 2.36757,0 0,-2.36757 2.36757,0 0,2.36757 2.36757,0 0,-2.36757 2.36756,0 0,4.735139 -4.73513,0 0,2.36757 2.36757,0 0,4.735139 2.36756,0 0,-4.735139 2.36759,0 0,-4.735139 4.73513,0 0,4.735139 -2.36757,0 0,4.735139 2.36757,0 0,2.367571 2.36757,0 0,2.367568 -2.36757,0 0,2.367571 2.36757,0 0,4.73514 -7.1027,0 0,2.367572 2.36756,0 0,2.36757 -2.36756,0 0,7.102707 2.36756,0 0,2.36758 4.73514,0 0,4.73512 -4.73514,0 0,-2.36756 -2.36756,0 0,2.36756 2.36756,0 0,2.36757 -2.36756,0 0,2.36757 -2.36759,0 0,-2.36757 -4.73513,0 0,-2.36757 -2.36757,0 0,2.36757 -2.36757,0 0,2.36757 -4.73514,0 0,4.73515 4.73514,0 0,4.73513 2.36757,0 0,4.73514 2.36757,0 0,-4.73514 -2.36757,0 0,-2.36757 2.36757,0 0,-4.73514 2.36757,0 0,4.73514 2.36756,0 0,-2.36756 2.36759,0 0,2.36756 4.73513,0 0,2.36757 7.1027,0 0,2.36757 -4.73513,0 0,2.36757 2.36757,0 0,4.73515 -4.73514,0 0,2.36756 7.1027,0 0,2.36758 2.36758,0 0,-7.10271 4.73515,0 0,-2.36758 2.36756,0 0,-4.73514 2.36756,0 0,-2.36757 -2.36756,0 0,-2.36756 4.73513,0 0,2.36756 4.73514,0 0,2.36757 -4.73514,0 0,2.36757 -2.36757,0 0,7.10272 2.36757,0 0,7.1027 2.36757,0 0,-7.1027 -2.36757,0 0,-4.73515 2.36757,0 0,2.36758 2.36757,0 0,4.73513 2.36758,0 0,2.36758 2.36756,0 0,-2.36758 -2.36756,0 0,-4.73513 2.36756,0 0,-9.47029 2.36757,0 0,-2.36756 -2.36757,0 0,-4.73515 2.36757,0 0,-4.73514 -4.73513,0 0,2.36757 -2.36758,0 0,2.36757 -4.73514,0 0,-2.36757 -2.36757,0 0,-2.36757 7.10271,0 0,-4.73512 4.73514,0 0,-2.36758 -4.73514,0 0,2.36758 -7.10271,0 0,-2.36758 4.73514,0 0,-2.36757 -4.73514,0 0,-2.367572 2.36757,0 0,-7.102707 2.36757,0 0,2.367572 2.36757,0 0,4.735135 2.36758,0 0,-4.735135 2.36756,0 0,4.735135 2.36757,0 0,-4.735135 2.36758,0 0,2.36757 4.73514,0 0,-2.36757 2.36758,0 0,-2.367572 2.36756,0 0,-7.102711 2.36758,0 0,2.367571 2.36756,0 0,-2.367571 -2.36756,0 0,-2.367568 -2.36758,0 0,-4.73514 2.36758,0 0,-2.36757 -4.73514,0 0,-2.36757 7.1027,0 0,-2.367569 -4.73514,0 0,-4.735139 -2.36756,0 0,-2.36757 2.36756,0 0,-4.735139 -7.10271,0 0,-4.735139 -2.36757,0 0,-2.367571 2.36757,0 0,-2.36757 -2.36757,0 0,2.36757 -4.73514,0 0,-4.73514 -2.36756,0 0,-2.367569 -2.36758,0 0,-2.367568 -2.36757,0 0,2.367568 -2.36757,0 0,2.367569 -2.36758,0 0,2.36757 9.4703,0 0,7.10271 4.73512,0 0,2.367569 -16.57298,0 0,-2.367569 2.36756,0 0,-2.367569 -2.36756,0 0,2.367569 -2.36756,0 0,-4.73514 -2.36758,0 0,2.36757 -2.36757,0 0,4.735139 -2.36758,0 0,2.36757 2.36758,0 0,4.73514 -2.36758,0 0,-2.36757 -2.36756,0 0,-2.36757 -2.36757,0 0,-2.367569 2.36757,0 0,-2.36757 2.36756,0 0,-4.73514 -2.36756,0 0,-2.36757 4.73514,0 0,-2.36757 -2.36758,0 0,-4.735137 2.36758,0 0,2.367568 2.36757,0 0,4.735139 4.73514,0 0,-2.36757 -2.36756,0 0,-2.367569 2.36756,0 0,-7.102706 -2.36756,0 0,7.102706 -2.36758,0 0,-2.367568 -2.36757,0 0,-2.367569 -2.36758,0 0,-2.367569 -2.36756,0 0,-2.367571 -7.10271,0 m -11.83785,2.367571 0,2.367569 2.36757,0 0,-2.367569 -2.36757,0 z"
       id="path3131" />
    <path
       inkscape:connector-curvature="0"
       style="fill:#000000;stroke:none"
       d="m 99.28649,37.63021 0,7.102706 2.36757,0 0,-7.102706 -2.36757,0 z"
       id="path3133" />
    <path
       inkscape:connector-curvature="0"
       style="fill:#ffffff;stroke:none"
       d="m 87.44864,39.997779 0,7.102706 7.10271,0 0,-7.102706 -7.10271,0 z"
       id="path3135" />
    <path
       inkscape:connector-curvature="0"
       style="fill:#000000;stroke:none"
       d="m 89.8162,42.365348 0,2.367568 2.36759,0 0,-2.367568 -2.36759,0 z"
       id="path3137" />
    <path
       inkscape:connector-curvature="0"
       style="fill:#ffffff;stroke:none"
       d="m 47.19996,49.468055 0,2.36757 2.36757,0 0,-2.36757 -2.36757,0 m 89.96765,0 0,7.10271 2.36758,0 0,-2.36757 2.36756,0 0,-2.36757 -2.36756,0 0,-2.36757 -2.36758,0 m -18.94056,2.36757 0,2.36757 4.73513,0 0,-2.36757 -4.73513,0 z"
       id="path3139" />
    <path
       inkscape:connector-curvature="0"
       style="fill:#000000;stroke:none"
       d="m 130.06489,54.203195 0,2.36757 2.36757,0 0,-2.36757 -2.36757,0 z"
       id="path3141" />
    <path
       inkscape:connector-curvature="0"
       style="fill:#ffffff;stroke:none"
       d="m 35.36211,56.570765 0,2.367569 2.36756,0 0,-2.367569 -2.36756,0 z"
       id="path3143" />
    <path
       inkscape:connector-curvature="0"
       style="fill:#000000;stroke:none"
       d="m 47.19996,56.570765 0,2.367569 2.36757,0 0,-2.367569 -2.36757,0 m 49.71896,0 0,2.367569 2.36757,0 0,-2.367569 -2.36757,0 m 11.83785,0 0,2.367569 -2.36757,0 0,2.36757 2.36757,0 0,2.367569 2.36758,0 0,-2.367569 2.36756,0 0,-2.36757 -2.36756,0 0,-2.367569 -2.36758,0 z"
       id="path3145" />
    <path
       inkscape:connector-curvature="0"
       style="fill:#ffffff;stroke:none"
       d="m 108.75677,58.938334 0,2.36757 2.36758,0 0,-2.36757 -2.36758,0 z"
       id="path3147" />
    <path
       inkscape:connector-curvature="0"
       style="fill:#000000;stroke:none"
       d="m 130.06489,58.938334 0,2.36757 -9.47028,0 0,4.73514 2.36757,0 0,2.367568 2.36758,0 0,-2.367568 2.36756,0 0,4.735139 -4.73514,0 0,2.367568 -4.73513,0 0,-2.367568 2.36757,0 0,-2.367571 -7.10271,0 0,4.735139 4.73514,0 0,4.735141 -2.36758,0 0,2.367569 2.36758,0 0,2.36757 7.10272,0 0,2.367569 -2.36759,0 0,2.36757 -4.73513,0 0,-2.36757 -2.36758,0 0,-2.367569 -2.36756,0 0,-7.102709 -4.73514,0 0,2.36757 2.36758,0 0,2.367569 -2.36758,0 0,2.36757 -2.36757,0 0,-2.36757 -2.36758,0 0,-2.367569 -4.73513,0 0,4.735139 4.73513,0 0,2.367569 4.73515,0 0,4.73514 -2.36757,0 0,-2.36757 -4.73514,0 0,-2.36757 -2.36757,0 0,2.36757 2.36757,0 0,2.36757 2.36756,0 0,2.367571 -4.73513,0 0,4.735142 -4.73514,0 0,2.367565 2.36757,0 0,4.735142 2.36757,0 0,-4.735142 2.36757,0 0,7.102722 4.73514,0 0,2.36756 -2.36758,0 0,2.36756 -2.36756,0 0,2.36757 2.36756,0 0,2.36757 2.36758,0 0,2.36757 2.36757,0 0,-2.36757 2.36758,0 0,4.73515 2.36756,0 0,-4.73515 2.36756,0 0,2.36757 2.36757,0 0,-2.36757 -2.36757,0 0,-2.36757 -2.36756,0 0,-2.36757 2.36756,0 0,-2.36756 -2.36756,0 0,-4.73514 2.36756,0 0,-2.36757 -2.36756,0 0,-4.735137 -2.36756,0 0,-2.36757 2.36756,0 0,-2.367572 2.36756,0 0,-2.367571 -2.36756,0 0,2.367571 -2.36756,0 0,2.367572 -2.36758,0 0,-4.735143 2.36758,0 0,-4.73514 -2.36758,0 0,-2.367569 4.73514,0 0,2.367569 2.36756,0 0,2.367571 2.36757,0 0,2.367569 2.36757,0 0,2.367571 2.36757,0 0,2.367572 2.36758,0 0,-2.367572 2.36756,0 0,2.367572 2.36757,0 0,-2.367572 2.36758,0 0,2.367572 2.36757,0 0,-2.367572 4.73515,0 0,-7.102711 2.36756,0 0,-2.367568 -2.36756,0 0,-4.73514 -2.36758,0 0,-2.36757 -11.83784,0 0,-2.36757 2.36756,0 0,-2.367569 2.36758,0 0,2.367569 4.73513,0 0,-2.367569 -4.73513,0 0,-2.36757 2.36756,0 0,-2.367569 2.36757,0 0,2.367569 2.36757,0 0,-7.102709 -2.36757,0 0,2.36757 -2.36757,0 0,-4.73514 -2.36756,0 m -35.51355,2.36757 0,4.73514 -4.73515,0 0,2.367569 4.73515,0 0,-2.367569 2.36758,0 0,2.367569 2.36756,0 0,-7.102709 -4.73514,0 m 21.30811,0 0,2.36757 -2.36756,0 0,2.36757 2.36756,0 0,-2.36757 2.36758,0 0,-2.36757 -2.36758,0 z"
       id="path3149" />
    <path
       inkscape:connector-curvature="0"
       style="fill:#ffffff;stroke:none"
       d="m 122.96218,63.673473 0,2.367571 2.36758,0 0,-2.367571 -2.36758,0 m 4.73514,0 0,2.367571 4.73514,0 0,-2.367571 -4.73514,0 z"
       id="path3151" />
    <path
       inkscape:connector-curvature="0"
       style="fill:#000000;stroke:none"
       d="m 85.08107,66.041044 0,2.367568 2.36757,0 0,-2.367568 -2.36757,0 m 21.30813,0 0,4.735139 -2.36758,0 0,-2.367571 -2.36756,0 0,7.10271 4.73514,0 0,-2.367571 2.36757,0 0,-2.367568 2.36758,0 0,-2.367571 -2.36758,0 0,-2.367568 -2.36757,0 z"
       id="path3153" />
    <path
       inkscape:connector-curvature="0"
       style="fill:#ffffff;stroke:none"
       d="m 144.27032,66.041044 0,2.367568 2.36756,0 0,-2.367568 -2.36756,0 z"
       id="path3155" />
    <path
       inkscape:connector-curvature="0"
       style="fill:#000000;stroke:none"
       d="m 49.56753,68.408612 0,2.367571 -4.73515,0 0,2.367568 4.73515,0 0,-2.367568 2.36757,0 0,2.367568 2.36757,0 0,-2.367568 -2.36757,0 0,-2.367571 -2.36757,0 m -16.57299,2.367571 0,7.102709 2.36757,0 0,-7.102709 -2.36757,0 m 37.8811,0 0,2.367568 -2.36756,0 0,2.367571 4.73514,0 0,-4.735139 -2.36758,0 m -23.67568,4.735139 0,2.36757 2.36757,0 0,-2.36757 -2.36757,0 m 28.41083,0 0,2.36757 2.36758,0 0,-2.36757 -2.36758,0 z"
       id="path3157" />
    <path
       inkscape:connector-curvature="0"
       style="fill:#ffffff;stroke:none"
       d="m 120.59461,75.511322 0,2.36757 -2.36757,0 0,2.367569 7.10272,0 0,-2.367569 -2.36758,0 0,-2.36757 -2.36757,0 z"
       id="path3159" />
    <path
       inkscape:connector-curvature="0"
       style="fill:#000000;stroke:none"
       d="m 54.30267,77.878892 0,2.367569 2.36756,0 0,2.36757 4.73515,0 0,2.367569 2.36757,0 0,-2.367569 -2.36757,0 0,-2.36757 -4.73515,0 0,-2.367569 -2.36756,0 z"
       id="path3161" />
    <path
       inkscape:connector-curvature="0"
       style="fill:#ffffff;stroke:none"
       d="m 132.43246,77.878892 0,2.367569 4.73515,0 0,-2.367569 -4.73515,0 z"
       id="path3163" />
    <path
       inkscape:connector-curvature="0"
       style="fill:#000000;stroke:none"
       d="m 32.99454,80.246461 0,7.102709 4.73513,0 0,-2.36757 2.36758,0 0,-2.367569 -4.73514,0 0,-2.36757 -2.36757,0 m 44.98383,0 0,2.36757 2.36756,0 0,-2.36757 -2.36756,0 z"
       id="path3165" />
    <path
       inkscape:connector-curvature="0"
       style="fill:#ffffff;stroke:none"
       d="m 44.83238,82.614031 0,7.102709 7.10272,0 0,-7.102709 -7.10272,0 m 42.61626,0 0,7.102709 7.10271,0 0,-7.102709 -7.10271,0 m 42.61625,0 0,7.102709 7.10272,0 0,-7.102709 -7.10272,0 z"
       id="path3167" />
    <path
       inkscape:connector-curvature="0"
       style="fill:#000000;stroke:none"
       d="m 47.19996,84.9816 0,2.36757 2.36757,0 0,-2.36757 -2.36757,0 m 42.61624,0 0,2.36757 2.36759,0 0,-2.36757 -2.36759,0 m 42.61626,0 0,2.36757 2.36757,0 0,-2.36757 -2.36757,0 z"
       id="path3169" />
    <path
       inkscape:connector-curvature="0"
       style="fill:#ffffff;stroke:none"
       d="m 122.96218,87.34917 0,2.36757 4.73514,0 0,-2.36757 -4.73514,0 z"
       id="path3171" />
    <path
       inkscape:connector-curvature="0"
       style="fill:#000000;stroke:none"
       d="m 32.99454,89.71674 0,2.367571 2.36757,0 0,2.367572 2.36756,0 0,2.36757 -2.36756,0 0,2.367565 2.36756,0 0,-2.367565 2.36758,0 0,-7.102713 -2.36758,0 0,2.367571 -2.36756,0 0,-2.367571 -2.36757,0 m 35.51354,0 0,2.367571 -2.36756,0 0,2.367572 2.36756,0 0,-2.367572 2.36756,0 0,4.735142 -2.36756,0 0,2.367565 2.36756,0 0,7.102722 2.36758,0 0,-4.73515 2.36757,0 0,-7.102707 -2.36757,0 0,-2.367572 -2.36758,0 0,-2.367571 -2.36756,0 m -7.1027,2.367571 0,2.367572 -2.36756,0 0,2.36757 -2.36758,0 0,2.367565 4.73514,0 0,-2.367565 2.36757,0 0,-4.735142 -2.36757,0 m -14.20541,2.367572 0,2.36757 2.36757,0 0,-2.36757 -2.36757,0 m 4.73514,0 0,2.36757 2.36757,0 0,-2.36757 -2.36757,0 m 28.41083,0 0,4.735135 2.36757,0 0,-4.735135 -2.36757,0 z"
       id="path3173" />
    <path
       inkscape:connector-curvature="0"
       style="fill:#ffffff;stroke:none"
       d="m 101.65406,94.451883 0,2.36757 2.36756,0 0,2.367565 4.73515,0 0,4.735142 4.73514,0 0,-2.36757 -2.36756,0 0,-2.367572 -2.36758,0 0,-4.735135 -2.36757,0 0,2.36757 -2.36758,0 0,-2.36757 -2.36756,0 z"
       id="path3175" />
    <path
       inkscape:connector-curvature="0"
       style="fill:#000000;stroke:none"
       d="m 47.19996,99.187018 0,2.367572 2.36757,0 0,-2.367572 -2.36757,0 m -11.83785,2.367572 0,2.36757 2.36756,0 0,-2.36757 -2.36756,0 m 30.77841,0 0,2.36757 2.36756,0 0,-2.36757 -2.36756,0 m -9.47029,4.73515 0,4.73512 -2.36756,0 0,2.36757 2.36756,0 0,-2.36757 2.36758,0 0,-4.73512 -2.36758,0 z"
       id="path3177" />
    <path
       inkscape:connector-curvature="0"
       style="fill:#ffffff;stroke:none"
       d="m 80.34593,106.28974 0,2.36756 7.10271,0 0,2.36756 2.36756,0 0,-4.73512 -9.47027,0 m 28.41084,0 0,4.73512 -4.73515,0 0,2.36757 7.10273,0 0,2.36757 2.36756,0 0,-2.36757 -2.36756,0 0,-2.36757 2.36756,0 0,-2.36756 -2.36756,0 0,-2.36756 -2.36758,0 m -68.65952,7.10269 0,2.36757 2.36756,0 0,-2.36757 -2.36756,0 z"
       id="path3179" />
    <path
       inkscape:connector-curvature="0"
       style="fill:#000000;stroke:none"
       d="m 96.91892,113.39243 0,2.36757 -2.36757,0 0,2.36757 -2.36756,0 0,2.36758 4.73513,0 0,2.36756 2.36757,0 0,-2.36756 2.36757,0 0,2.36756 2.36756,0 0,2.36757 2.36758,0 0,2.36757 -2.36758,0 0,4.73515 2.36758,0 0,-2.36758 2.36757,0 0,-4.73514 2.36758,0 0,-2.36757 -2.36758,0 0,-2.36756 -7.1027,0 0,-2.36758 -2.36757,0 0,-4.73514 -2.36756,0 m 28.41083,0 0,2.36757 2.36756,0 0,-2.36757 -2.36756,0 m -44.98383,2.36757 0,4.73515 2.36757,0 0,-4.73515 -2.36757,0 m 7.10271,0 0,2.36757 2.36756,0 0,-2.36757 -2.36756,0 z"
       id="path3181" />
    <path
       inkscape:connector-curvature="0"
       style="fill:#ffffff;stroke:none"
       d="m 137.16761,115.76 0,4.73515 -2.36758,0 0,-2.36758 -2.36757,0 0,4.73514 4.73515,0 0,-2.36756 2.36757,0 0,-4.73515 -2.36757,0 z"
       id="path3183" />
    <path
       inkscape:connector-curvature="0"
       style="fill:#000000;stroke:none"
       d="m 66.14052,118.12757 0,2.36758 2.36756,0 0,-2.36758 -2.36756,0 z"
       id="path3185" />
    <path
       inkscape:connector-curvature="0"
       style="fill:#ffffff;stroke:none"
       d="m 96.91892,118.12757 0,2.36758 2.36757,0 0,-2.36758 -2.36757,0 m 44.98382,0 0,4.73514 -2.36756,0 0,2.36757 2.36756,0 0,-2.36757 2.36758,0 0,-4.73514 -2.36758,0 z"
       id="path3187" />
    <path
       inkscape:connector-curvature="0"
       style="fill:#000000;stroke:none"
       d="m 122.96218,120.49515 0,2.36756 2.36758,0 0,-2.36756 -2.36758,0 m -75.76222,2.36756 0,2.36757 2.36757,0 0,-2.36757 -2.36757,0 z"
       id="path3189" />
    <path
       inkscape:connector-curvature="0"
       style="fill:#ffffff;stroke:none"
       d="m 106.3892,122.86271 0,2.36757 2.36757,0 0,-2.36757 -2.36757,0 m -44.98382,2.36757 0,2.36757 2.36757,0 0,-2.36757 -2.36757,0 m 26.04326,0 0,7.10272 7.10271,0 0,-7.10272 -7.10271,0 m 42.61625,0 0,7.10272 7.10272,0 0,-7.10272 -7.10272,0 z"
       id="path3191" />
    <path
       inkscape:connector-curvature="0"
       style="fill:#000000;stroke:none"
       d="m 32.99454,127.59785 0,16.57299 16.57299,0 0,-16.57299 -16.57299,0 z"
       id="path3193" />
    <path
       inkscape:connector-curvature="0"
       style="fill:#ffffff;stroke:none"
       d="m 75.61079,127.59785 0,2.36757 -2.36757,0 0,2.36758 -2.36758,0 0,4.73513 -2.36756,0 0,2.36758 2.36756,0 0,-2.36758 2.36758,0 0,-4.73513 2.36757,0 0,4.73513 2.36758,0 0,2.36758 2.36756,0 0,-4.73514 -2.36756,0 0,-2.36757 -2.36758,0 0,-2.36758 2.36758,0 0,-2.36757 -2.36758,0 z"
       id="path3195" />
    <path
       inkscape:connector-curvature="0"
       style="fill:#000000;stroke:none"
       d="m 89.8162,127.59785 0,2.36757 2.36759,0 0,-2.36757 -2.36759,0 m 33.14598,0 0,4.73515 2.36758,0 0,-4.73515 -2.36758,0 m 9.47028,0 0,2.36757 2.36757,0 0,-2.36757 -2.36757,0 z"
       id="path3197" />
    <path
       inkscape:connector-curvature="0"
       style="fill:#ffffff;stroke:none"
       d="m 139.53518,127.59785 0,4.73515 4.73514,0 0,-2.36758 -2.36758,0 0,-2.36757 -2.36756,0 m -104.17307,2.36757 0,11.83785 11.83785,0 0,-11.83785 -11.83785,0 z"
       id="path3199" />
    <path
       inkscape:connector-curvature="0"
       style="fill:#000000;stroke:none"
       d="m 37.72967,132.333 0,7.10271 7.10271,0 0,-7.10271 -7.10271,0 m 23.67571,0 0,2.36757 2.36757,0 0,-2.36757 -2.36757,0 z"
       id="path3201" />
    <path
       inkscape:connector-curvature="0"
       style="fill:#ffffff;stroke:none"
       d="m 82.7135,132.333 0,4.73513 2.36757,0 0,-4.73513 -2.36757,0 m 4.73514,2.36757 0,2.36756 7.10271,0 0,-2.36756 -7.10271,0 z"
       id="path3203" />
    <path
       inkscape:connector-curvature="0"
       style="fill:#000000;stroke:none"
       d="m 61.40538,137.06813 0,2.36758 2.36757,0 0,-2.36758 -2.36757,0 m 78.1298,0 0,2.36758 7.1027,0 0,2.36756 -4.73514,0 0,2.36757 7.10271,0 0,-7.10271 -9.47027,0 m -78.1298,4.73514 0,2.36757 4.73514,0 0,-2.36757 -4.73514,0 z"
       id="path3205" />
  </g>
</svg>
