<?xml version="1.0" encoding="UTF-8" standalone="no"?>
<!-- Created with Inkscape (http://www.inkscape.org/) -->

<svg
   xmlns:dc="http://purl.org/dc/elements/1.1/"
   xmlns:cc="http://creativecommons.org/ns#"
   xmlns:rdf="http://www.w3.org/1999/02/22-rdf-syntax-ns#"
   xmlns:svg="http://www.w3.org/2000/svg"
   xmlns="http://www.w3.org/2000/svg"
   xmlns:sodipodi="http://sodipodi.sourceforge.net/DTD/sodipodi-0.dtd"
   xmlns:inkscape="http://www.inkscape.org/namespaces/inkscape"
   width="325.98425"
   height="184.25197"
   id="svg5444"
   version="1.1"
   inkscape:version="0.48.0 r9654"
   sodipodi:docname="business_card_01back.svg">
  <defs
     id="defs3" />
  <sodipodi:namedview
     id="base"
     pagecolor="#ffffff"
     bordercolor="#666666"
     borderopacity="1.0"
     inkscape:pageopacity="0.0"
     inkscape:pageshadow="2"
     inkscape:zoom="1"
     inkscape:cx="70.031096"
     inkscape:cy="88.906638"
     inkscape:document-units="mm"
     inkscape:current-layer="layer1"
     showgrid="false"
     inkscape:window-width="1920"
     inkscape:window-height="999"
     inkscape:window-x="0"
     inkscape:window-y="24"
     inkscape:window-maximized="1"
     units="mm" />
  <metadata
     id="metadata5448">
    <rdf:RDF>
      <cc:Work
         rdf:about="">
        <dc:format>image/svg+xml</dc:format>
        <dc:type
           rdf:resource="http://purl.org/dc/dcmitype/StillImage" />
        <dc:title></dc:title>
      </cc:Work>
    </rdf:RDF>
  </metadata>
  <g
     inkscape:label="Layer 1"
     inkscape:groupmode="layer"
     id="layer1"
     transform="translate(0,7.0865823)">
    <path
       id="path4474"
       d="m 34.433174,33.598563 0,13.212059 13.212063,0 0,-13.212059 -13.212063,0 m 15.099498,0 0,5.662312 3.77487,0 0,1.887437 -3.77487,0 0,1.887437 1.887435,0 0,1.887437 -1.887435,0 0,1.887436 1.887435,0 0,1.887437 -11.324619,0 0,1.887437 -1.887435,0 0,3.774874 -1.887435,0 0,-1.887437 -1.887444,0 0,1.887437 1.887444,0 0,1.887436 -1.887444,0 0,1.887438 3.774879,0 0,-3.774874 1.887435,0 0,1.887436 1.887435,0 0,1.887438 -1.887435,0 0,1.887437 1.887435,0 0,-1.887437 1.887435,0 0,3.774874 3.774879,0 0,-1.887437 -1.887435,0 0,-1.887437 3.77487,0 0,7.549746 -1.887435,0 0,-1.887436 -1.887435,0 0,1.887436 1.887435,0 0,1.887437 -1.887435,0 0,1.887437 -1.887444,0 0,-1.887437 -1.887435,0 0,-1.887437 -1.887435,0 0,-1.887436 1.887435,0 0,-1.887436 -1.887435,0 0,1.887436 -3.77487,0 0,-1.887436 1.887435,0 0,-1.887437 -3.774879,0 0,5.662309 1.887444,0 0,3.774874 7.54974,0 0,3.774874 5.662314,0 0,-1.887437 -3.77487,0 0,-1.887437 3.77487,0 0,-3.774874 1.887435,0 0,3.774874 5.662314,0 0,1.887437 -3.774879,0 0,1.887437 -1.887435,0 0,1.887436 -1.887435,0 0,1.887437 -1.887435,0 0,-1.887437 -5.662314,0 0,-3.774873 -3.77487,0 0,1.887437 -3.774879,0 0,7.549747 1.887444,0 0,1.887437 -1.887444,0 0,1.887436 1.887444,0 0,1.887437 1.887435,0 0,5.662317 -3.774879,0 0,7.549738 1.887444,0 0,-5.662303 1.887435,0 0,-1.887435 1.887435,0 0,7.549738 -1.887435,0 0,1.88745 1.887435,0 0,1.88743 -1.887435,0 0,1.88744 1.887435,0 0,3.77487 5.662314,0 0,1.88744 -1.887444,0 0,3.77487 3.774879,0 0,1.88743 -3.774879,0 0,3.77488 -1.887435,0 0,-1.88744 -3.77487,0 0,3.77488 -1.887435,0 0,1.88743 -1.887444,0 0,1.88744 5.662314,0 0,1.88743 -1.887435,0 0,1.88745 -3.774879,0 0,3.77487 7.549749,0 0,-1.88744 1.887435,0 0,-1.88743 3.774879,0 0,1.88743 -1.887435,0 0,1.88744 3.77487,0 0,9.43718 5.662314,0 0,1.88744 1.887435,0 0,1.88743 -3.774879,0 0,-1.88743 -1.887435,0 0,1.88743 -1.887435,0 0,1.88745 9.437184,0 0,-3.77488 -1.887435,0 0,-1.88744 1.887435,0 0,-1.88743 1.887435,0 0,1.88743 1.887435,0 0,-1.88743 1.887444,0 0,3.77487 -1.887444,0 0,1.88743 -1.887435,0 0,1.88745 3.774879,0 0,-1.88745 3.77487,0 0,-3.77487 1.887435,0 0,-1.88743 -1.887435,0 0,1.88743 -1.887435,0 0,-1.88743 -1.887435,0 0,-1.88744 -1.887444,0 0,1.88744 -1.887435,0 0,-3.77488 1.887435,0 0,-3.77487 3.774879,0 0,1.88743 -1.887435,0 0,1.88744 1.887435,0 0,1.88744 5.662305,0 0,1.88744 3.774879,0 0,-3.77488 -1.887435,0 0,-1.88744 1.887435,0 0,-1.88743 1.887435,0 0,3.77487 1.887435,0 0,-3.77487 1.887435,0 0,1.88743 1.887444,0 0,-1.88743 1.887435,0 0,5.66231 1.887435,0 0,1.88744 -1.887435,0 0,3.77487 -1.887435,0 0,-1.88744 -1.887444,0 0,-3.77487 1.887444,0 0,-1.88744 -1.887444,0 0,1.88744 -1.887435,0 0,1.88744 -1.887435,0 0,1.88743 -3.77487,0 0,1.88744 -3.774879,0 0,3.77488 1.887435,0 0,-1.88745 1.887444,0 0,-1.88743 3.77487,0 0,-1.88744 1.887435,0 0,3.77487 -1.887435,0 0,1.88745 3.77487,0 0,-3.77488 1.887444,0 0,1.88743 7.54974,0 0,1.88745 5.662314,0 0,-1.88745 -3.77487,0 0,-1.88743 1.887435,0 0,-1.88744 -3.774879,0 0,-1.88743 5.662314,0 0,-1.88744 1.887435,0 0,3.77487 1.887433,0 0,-1.88743 1.88745,0 0,-1.88744 1.88743,0 0,1.88744 3.77487,0 0,-3.77488 7.54975,0 0,3.77488 -1.88744,0 0,1.88743 -3.77487,0 0,3.77487 3.77487,0 0,-1.88743 1.88744,0 0,1.88743 1.88744,0 0,1.88745 1.88743,0 0,-1.88745 -1.88743,0 0,-1.88743 1.88743,0 0,-1.88744 3.77488,0 0,1.88744 1.88743,0 0,3.77488 1.88744,0 0,-3.77488 1.88743,0 0,3.77488 9.43719,0 0,-3.77488 1.88744,0 0,-3.77487 1.88744,0 0,-3.77488 1.88743,0 0,-1.88744 1.88744,0 0,5.66232 -1.88744,0 0,3.77487 -1.88743,0 0,1.88743 -1.88744,0 0,1.88745 1.88744,0 0,-1.88745 3.77487,0 0,1.88745 3.77488,0 0,-1.88745 -1.88745,0 0,-1.88743 1.88745,0 0,-7.54975 -1.88745,0 0,-1.88744 1.88745,0 0,-3.77487 -3.77488,0 0,1.88744 -1.88744,0 0,1.88743 -1.88743,0 0,-7.54975 -1.88744,0 0,-1.88743 1.88744,0 0,-3.77487 1.88743,0 0,-1.88744 3.77487,0 0,3.77487 -3.77487,0 0,3.77487 1.88744,0 0,-1.88743 1.88743,0 0,-1.88744 1.88745,0 0,-7.54975 -1.88745,0 0,1.88744 -1.88743,0 0,-5.66231 1.88743,0 0,-1.88743 1.88745,0 0,-5.66231 -5.66232,0 0,1.88743 -1.88743,0 0,-1.88743 -3.77488,0 0,1.88743 3.77488,0 0,1.88744 -3.77488,0 0,3.77487 3.77488,0 0,1.88744 1.88743,0 0,1.88743 -1.88743,0 0,1.88744 1.88743,0 0,1.88744 -3.77487,0 0,-1.88744 -1.88744,0 0,-1.88744 1.88744,0 0,-1.88743 -5.66231,0 0,-3.77487 1.88743,0 0,-3.77488 -1.88743,0 0,3.77488 -1.88744,0 0,1.88743 -1.88743,0 0,-3.77487 -3.77488,0 0,-3.77487 1.88743,0 0,-1.88744 1.88745,0 0,3.77487 1.88743,0 0,-3.77487 -1.88743,0 0,-1.88743 5.6623,0 0,1.88743 1.88744,0 0,-1.88743 1.88744,0 0,-1.88745 1.88744,0 0,-1.88743 3.77487,0 0,1.88743 1.88743,0 0,3.77488 1.88745,0 0,-7.549748 -1.88745,0 0,1.887438 -1.88743,0 0,-5.662308 3.77488,0 0,-1.887444 -3.77488,0 0,1.887444 -1.88744,0 0,1.887435 -1.88743,0 0,-5.662314 1.88743,0 0,-1.887438 1.88744,0 0,1.887438 1.88743,0 0,-1.887438 1.88745,0 0,-15.099493 -1.88745,0 0,-1.887437 -1.88743,0 0,-3.774874 -1.88744,0 0,-1.887436 1.88744,0 0,-1.887437 1.88743,0 0,3.774873 1.88745,0 0,-13.212058 -1.88745,0 0,3.774874 -1.88743,0 0,-3.774874 -3.77487,0 0,-3.774873 -1.88744,0 0,3.774873 -1.88744,0 0,-1.887437 -1.88744,0 0,-1.887436 -1.88743,0 0,-3.774874 -1.88744,0 0,1.887436 -1.88743,0 0,-3.774873 1.88743,0 0,-1.887437 1.88744,0 0,-7.549749 -3.77487,0 0,3.774876 -7.54975,0 0,1.887436 -7.54975,0 0,-3.774872 3.77487,0 0,1.887436 1.88744,0 0,-1.887436 1.88744,0 0,-1.88744 -1.88744,0 0,1.88744 -1.88744,0 0,-1.88744 -3.77487,0 0,1.88744 -1.88743,0 0,-1.88744 -11.32462,0 0,1.88744 -1.88745,0 0,1.887436 -7.549738,0 0,1.887436 -1.887444,0 0,-1.887436 -3.77487,0 0,-1.887436 1.887435,0 0,-1.88744 -5.662305,0 0,3.774876 -7.549749,0 0,3.774873 -5.662314,0 0,3.774874 -1.887435,0 0,-3.774874 -5.662314,0 0,1.887437 -1.887435,0 0,-3.774874 1.887435,0 0,-3.774872 1.887444,0 0,1.887436 3.77487,0 0,1.887436 5.662314,0 0,-1.887436 -3.774879,0 0,-1.887436 -1.887435,0 0,-1.88744 -7.549749,0 0,5.662312 -1.887435,0 0,-1.887436 -1.887435,0 0,1.887436 1.887435,0 0,3.774874 1.887435,0 0,3.774873 1.887435,0 0,-1.887436 1.887444,0 0,1.887436 1.887435,0 0,1.887438 1.887435,0 0,1.887436 -1.887435,0 0,1.887437 3.77487,0 0,3.774874 -1.887435,0 0,-1.887437 -3.77487,0 0,1.887437 1.887435,0 0,1.887437 -1.887435,0 0,1.887437 -1.887444,0 0,1.887437 -1.887435,0 0,1.887437 -5.662305,0 0,-1.887437 -1.887444,0 0,-1.887437 1.887444,0 0,-1.887437 -1.887444,0 0,-1.887437 1.887444,0 0,-1.887437 -1.887444,0 0,1.887437 -1.887435,0 0,-5.662311 1.887435,0 0,-3.774874 1.887444,0 0,5.662311 1.887435,0 0,1.887437 1.887435,0 0,-1.887437 1.887435,0 0,1.887437 1.887435,0 0,-1.887437 1.887444,0 0,-1.887437 -1.887444,0 0,1.887437 -1.887435,0 0,-1.887437 -3.77487,0 0,-3.774874 1.887435,0 0,-1.887436 -1.887435,0 0,1.887436 -1.887435,0 0,-1.887436 -1.887444,0 0,-1.887437 1.887444,0 0,-3.774874 -1.887444,0 0,-1.887436 -1.887435,0 0,-1.887436 1.887435,0 0,-1.88744 -3.77487,0 m 22.649238,0 0,1.88744 1.887444,0 0,-1.88744 -1.887444,0 m 18.874368,0 0,1.88744 5.662314,0 0,-1.88744 -5.662314,0 m 33.973862,0 0,1.88744 3.77487,0 0,-1.88744 -3.77487,0 m 11.32462,0 0,13.212059 13.21207,0 0,-13.212059 -13.21207,0 m -90.596958,1.88744 0,9.437183 -9.437184,0 0,-9.437183 9.437184,0 m 64.172848,0 0,3.774872 -3.77487,0 0,-1.887436 1.88743,0 0,-1.887436 1.88744,0 m 37.74873,0 0,9.437183 -9.43718,0 0,-9.437183 9.43718,0 m -109.471327,1.887436 0,5.66231 5.662305,0 0,-5.66231 -5.662305,0 m 47.18592,0 0,1.887436 5.662305,0 0,1.887437 -5.662305,0 0,-1.887437 -1.887435,0 0,-1.887436 1.887435,0 m 16.986937,0 0,3.774873 3.77487,0 0,1.887437 1.88743,0 0,-1.887437 3.77488,0 0,1.887437 1.88743,0 0,9.437184 -1.88743,0 0,5.662311 1.88743,0 0,1.887437 -1.88743,0 0,-1.887437 -1.88744,0 0,-1.887437 -1.88744,0 0,3.774874 -1.88743,0 0,1.887437 3.77487,0 0,3.774873 1.88744,0 0,1.887437 1.88743,0 0,-1.887437 3.77488,0 0,-1.887436 -3.77488,0 0,-1.887437 3.77488,0 0,-1.887437 1.88743,0 0,-1.887437 3.77488,0 0,-1.887437 -5.66231,0 0,1.887437 -1.88744,0 0,-5.662311 3.77487,0 0,-1.887437 -1.88743,0 0,-3.774874 -1.88744,0 0,-3.774873 1.88744,0 0,-1.887437 7.54974,0 0,-1.887437 3.77487,0 0,7.549747 -1.88743,0 0,1.887438 -1.88744,0 0,1.887436 1.88744,0 0,1.887437 -1.88744,0 0,1.887437 1.88744,0 0,1.887437 1.88743,0 0,1.887437 5.66232,0 0,-1.887437 -3.77487,0 0,-1.887437 1.88743,0 0,-1.887437 -3.77488,0 0,-3.774873 1.88745,0 0,1.887436 3.77487,0 0,1.887437 1.88743,0 0,1.887437 1.88744,0 0,1.887437 1.88744,0 0,1.887437 1.88744,0 0,-1.887437 1.88743,0 0,3.774874 1.88744,0 0,1.887437 -1.88744,0 0,1.887437 -1.88743,0 0,-1.887437 1.88743,0 0,-1.887437 -3.77487,0 0,7.549747 3.77487,0 0,1.887437 1.88744,0 0,3.774874 -1.88744,0 0,3.774873 3.77487,0 0,3.774874 -1.88743,0 0,1.887437 1.88743,0 0,1.887435 -1.88743,0 0,-1.887435 -1.88744,0 0,3.774872 -1.88743,0 0,-1.887437 -1.88744,0 0,-1.887435 -1.88744,0 0,-1.887437 -3.77487,0 0,1.887437 1.88743,0 0,3.774872 -1.88743,0 0,-1.887437 -1.88744,0 0,11.324624 5.66231,0 0,1.887438 1.88744,0 0,-1.887438 1.88744,0 0,1.887438 -1.88744,0 0,1.88743 -5.66231,0 0,-1.88743 -1.88744,0 0,1.88743 -1.88743,0 0,1.88745 -3.77488,0 0,-3.77488 -1.88744,0 0,5.66231 1.88744,0 0,1.88744 -1.88744,0 0,1.88743 -1.88743,0 0,1.88744 -1.88744,0 0,-1.88744 -3.77487,0 0,-1.88743 1.88743,0 0,-3.77487 -5.6623,0 0,1.88743 -1.88744,0 0,1.88744 -1.88744,0 0,-1.88744 1.88744,0 0,-1.88743 1.88744,0 0,-1.88745 -5.66232,0 0,3.77488 -1.88743,0 0,1.88744 1.88743,0 0,3.77487 3.77488,0 0,-1.88744 3.77487,0 0,3.77488 1.88744,0 0,1.88743 1.88743,0 0,1.88744 1.88744,0 0,1.88743 1.88744,0 0,3.77488 -3.77488,0 0,-1.88744 -1.88743,0 0,3.77488 -1.88744,0 0,-3.77488 1.88744,0 0,-1.88744 -1.88744,0 0,-1.88743 1.88744,0 0,-1.88744 -1.88744,0 0,-1.88743 -1.88743,0 0,-1.88744 -1.88744,0 0,1.88744 -1.88744,0 0,1.88743 1.88744,0 0,1.88744 1.88744,0 0,1.88743 -1.88744,0 0,1.88744 1.88744,0 0,3.77488 -1.88744,0 0,-1.88744 -1.88744,0 0,-5.66231 -3.77487,0 0,-3.77487 1.88743,0 0,-1.88744 -3.77487,0 0,5.66231 -1.88743,0 0,-1.88744 -1.88745,0 0,-1.88743 -1.887433,0 0,1.88743 -1.887435,0 0,1.88744 3.774868,0 0,1.88743 -1.887433,0 0,3.77488 3.774883,0 0,1.88744 1.88743,0 0,1.88743 1.88744,0 0,-1.88743 3.77487,0 0,3.77487 1.88744,0 0,1.88743 -1.88744,0 0,1.88745 1.88744,0 0,1.88743 3.77487,0 0,-1.88743 5.66231,0 0,-3.77488 3.77487,0 0,1.88743 -1.88743,0 0,3.77488 1.88743,0 0,-1.88743 3.77487,0 0,-1.88745 1.88745,0 0,-1.88743 -1.88745,0 0,-1.88744 -1.88743,0 0,-1.88743 -1.88744,0 0,-1.88744 1.88744,0 0,-1.88744 1.88743,0 0,-1.88744 1.88745,0 0,-1.88743 3.77487,0 0,1.88743 -3.77487,0 0,1.88744 1.88743,0 0,1.88744 1.88744,0 0,-1.88744 1.88743,0 0,1.88744 -1.88743,0 0,1.88744 -1.88744,0 0,1.88743 -1.88743,0 0,1.88744 3.77487,0 0,-1.88744 3.77487,0 0,-3.77487 1.88744,0 0,3.77487 -1.88744,0 0,1.88744 -3.77487,0 0,3.77488 1.88743,0 0,1.88743 -1.88743,0 0,-1.88743 -1.88744,0 0,1.88743 -1.88743,0 0,1.88744 1.88743,0 0,1.88743 -1.88743,0 0,3.77488 1.88743,0 0,1.88744 -1.88743,0 0,1.88743 -1.88745,0 0,-1.88743 -1.88743,0 0,1.88743 -3.77487,0 0,-1.88743 -1.88744,0 0,-1.88744 1.88744,0 0,-1.88744 -7.54975,0 0,-3.77487 -1.88743,0 0,1.88743 -1.88744,0 0,-3.77487 -5.66231,0 0,1.88744 3.77487,0 0,1.88743 -3.77487,0 0,-1.88743 -1.88744,0 0,1.88743 -1.88743,0 0,3.77488 -1.88745,0 0,-1.88744 -1.887433,0 0,-1.88744 -1.887435,0 0,-1.88743 1.887435,0 0,1.88743 3.774883,0 0,-1.88743 -1.88745,0 0,-1.88744 1.88745,0 0,1.88744 1.88743,0 0,-1.88744 1.88744,0 0,-1.88743 1.88743,0 0,-3.77488 -3.77487,0 0,-1.88744 -1.88743,0 0,-1.88743 -5.662318,0 0,1.88743 3.774868,0 0,1.88744 1.88745,0 0,1.88743 -1.88745,0 0,1.88745 -1.887433,0 0,1.88743 -3.77487,0 0,-3.77488 -1.887435,0 0,-1.88743 -1.887444,0 0,5.66231 -1.887435,0 0,-1.88743 -1.887435,0 0,3.77487 -1.887435,0 0,-1.88744 -9.437184,0 0,1.88744 -1.887435,0 0,1.88743 -1.887444,0 0,1.88744 1.887444,0 0,1.88744 -1.887444,0 0,-1.88744 -1.887435,0 0,-1.88744 -1.887435,0 0,1.88744 -1.887435,0 0,-1.88744 1.887435,0 0,-3.77487 -1.887435,0 0,-1.88743 -1.887435,0 0,1.88743 -1.887444,0 0,-1.88743 -1.887435,0 0,1.88743 -7.549749,0 0,-1.88743 5.662314,0 0,-1.88745 -1.887435,0 0,-1.88743 -1.887435,0 0,1.88743 -11.324628,0 0,-1.88743 -1.887435,0 0,-1.88744 -1.887435,0 0,-1.88743 3.77487,0 0,-1.88744 1.887444,0 0,-1.88744 1.887435,0 0,-1.88744 1.887435,0 0,-1.88743 -1.887435,0 0,-1.88744 -1.887435,0 0,-1.88743 5.662305,0 0,1.88743 1.887435,0 0,-1.88743 5.662314,0 0,1.88743 1.887435,0 0,-1.88743 1.887435,0 0,-3.77488 -1.887435,0 0,1.88744 -5.662305,0 0,-1.88744 3.77487,0 0,-1.88743 -5.662314,0 0,-1.88744 3.774879,0 0,-1.88743 -5.662314,0 0,-1.88745 -3.77487,0 0,1.88745 1.887435,0 0,1.88743 1.887435,0 0,3.77487 1.887435,0 0,1.88744 -1.887435,0 0,-1.88744 -3.77487,0 0,1.88744 -1.887435,0 0,-1.88744 -1.887444,0 0,-1.88743 1.887444,0 0,-1.88744 1.887435,0 0,-1.88743 -1.887435,0 0,-1.88745 1.887435,0 0,-1.88743 -1.887435,0 0,-1.887438 5.662305,0 0,3.774868 1.887435,0 0,-3.774868 5.662314,0 0,-1.887435 -7.549749,0 0,-3.774879 1.887435,0 0,-1.887435 -1.887435,0 0,-3.774875 -1.887435,0 0,1.887437 -7.549749,0 0,3.774873 -1.887435,0 0,-3.774873 -1.887435,0 0,-1.887437 -1.887435,0 0,-1.887435 3.77487,0 0,-1.887437 -1.887435,0 0,-3.774874 3.77487,0 0,1.887437 3.774879,0 0,-1.887437 1.887435,0 0,1.887437 -1.887435,0 0,1.887437 1.887435,0 0,1.887437 -1.887435,0 0,1.887435 3.77487,0 0,-5.662309 1.887435,0 0,-1.887437 1.887435,0 0,1.887437 -1.887435,0 0,1.887437 3.774879,0 0,-5.662312 1.887435,0 0,-1.887436 1.887435,0 0,-3.774874 1.887435,0 0,-1.887437 -5.662305,0 0,-1.887437 -1.887444,0 0,-1.887436 -1.887435,0 0,-1.887436 1.887435,0 0,1.887436 1.887444,0 0,1.887436 5.662305,0 0,1.887437 1.887435,0 0,-3.774873 1.887444,0 0,-1.887436 1.887435,0 0,-3.774874 1.887435,0 0,5.66231 3.77487,0 0,-1.887436 -1.887435,0 0,-5.662312 5.662314,0 0,-3.774873 -1.887435,0 0,1.887437 -1.887444,0 0,-1.887437 -1.887435,0 0,-1.887437 3.774879,0 0,-1.887437 -1.887444,0 0,-1.887437 -1.887435,0 0,-1.887436 1.887435,0 0,-1.887437 1.887444,0 0,1.887437 1.887435,0 0,-1.887437 3.77487,0 0,-1.887437 1.887435,0 0,1.887437 1.887444,0 0,3.774873 1.887435,0 0,-3.774873 1.887435,0 0,5.662311 -3.77487,0 0,-1.887438 -1.887444,0 0,1.887438 -1.887435,0 0,1.887436 3.774879,0 0,1.887437 1.887435,0 0,1.887437 -5.662314,0 0,1.887437 1.887435,0 0,1.887437 1.887444,0 0,-1.887437 3.77487,0 0,-5.662311 5.662314,0 0,1.887437 1.887435,0 0,1.887437 1.887435,0 0,-1.887437 1.887435,0 0,3.774874 -3.77487,0 0,1.887437 -1.887435,0 0,3.774874 1.887435,0 0,-1.887437 1.887435,0 0,1.887437 -1.887435,0 0,1.887437 1.887435,0 0,1.887436 3.774868,0 0,-1.887436 -1.887433,0 0,-5.662311 1.887433,0 0,1.887437 1.88745,0 0,-3.774874 -1.88745,0 0,-1.887437 7.54975,0 0,-1.887437 -3.77487,0 0,-1.887437 -1.88743,0 0,1.887437 -1.88745,0 0,-3.774873 -1.887433,0 0,-1.887438 -1.887435,0 0,-1.887436 1.887435,0 0,1.887436 1.887433,0 0,-1.887436 1.88745,0 0,1.887436 -1.88745,0 0,1.887438 3.77488,0 0,-3.774874 1.88744,0 0,-1.887437 -7.549753,0 0,-1.887437 1.887433,0 0,-3.774873 1.88745,0 m 11.32462,0 0,1.887436 -1.88744,0 0,-1.887436 1.88744,0 m 26.42411,0 0,5.66231 5.66231,0 0,-5.66231 -5.66231,0 m -43.411048,1.887436 0,1.887437 -1.887435,0 0,-1.887437 1.887435,0 m 35.861298,0 0,1.887437 -1.88743,0 0,-1.887437 1.88743,0 m -7.54975,1.887437 0,1.887437 -1.88743,0 0,1.887437 -1.88744,0 0,-1.887437 -3.77487,0 0,3.774873 1.88743,0 0,1.887438 1.88744,0 0,1.887436 1.88744,0 0,-5.66231 1.88743,0 0,1.887436 1.88744,0 0,-1.887436 -1.88744,0 0,-1.887437 1.88744,0 0,-1.887437 -1.88744,0 m -58.510535,1.887437 0,1.887437 1.887435,0 0,1.887436 -1.887435,0 0,-1.887436 -1.887435,0 0,-1.887437 1.887435,0 m 13.212054,0 0,3.774873 1.887435,0 0,-3.774873 -1.887435,0 m 15.099498,0 0,5.662311 -5.662314,0 0,-5.662311 5.662314,0 m -41.523615,1.887437 0,1.887436 -1.887435,0 0,-1.887436 1.887435,0 m 18.874368,0 0,1.887436 1.887444,0 0,1.887438 3.77487,0 0,-3.774874 -1.887435,0 0,1.887436 -1.887435,0 0,-1.887436 -1.887444,0 m 18.874368,0 0,1.887436 1.887444,0 0,-1.887436 -1.887444,0 m 15.099502,0 0,3.774874 -1.88744,0 0,1.887436 1.88744,0 0,-1.887436 1.88743,0 0,1.887436 3.77488,0 0,-5.66231 -1.88744,0 0,1.887436 -1.88744,0 0,-1.887436 -1.88743,0 m 15.09949,0 0,1.887436 -1.88744,0 0,-1.887436 1.88744,0 m -86.822096,3.774874 0,1.887436 1.887444,0 0,-1.887436 -1.887444,0 m 109.471336,0 0,1.887436 5.66232,0 0,-1.887436 -5.66232,0 m -101.921587,1.887436 0,1.887437 1.887435,0 0,1.887437 -3.77487,0 0,-3.774874 1.887435,0 m 5.662314,0 0,1.887437 1.887435,0 0,1.887437 -1.887435,0 0,1.887437 -1.887435,0 0,1.887437 -1.887444,0 0,-1.887437 1.887444,0 0,-1.887437 1.887435,0 0,-1.887437 -1.887435,0 0,-1.887437 1.887435,0 m 30.198987,0 0,3.774874 1.887435,0 0,-3.774874 -1.887435,0 m 11.324619,1.887437 0,1.887437 1.887435,0 0,1.887437 -3.77487,0 0,1.887437 -3.77487,0 0,3.774874 -1.887444,0 0,1.887437 -1.887435,0 0,1.887436 -1.887435,0 0,-9.437184 -1.887435,0 0,1.887437 -1.887435,0 0,1.887437 -1.887444,0 0,1.887437 1.887444,0 0,1.887437 -1.887444,0 0,1.887436 1.887444,0 0,1.887437 -3.774879,0 0,1.887437 3.774879,0 0,-1.887437 3.77487,0 0,1.887437 -1.887435,0 0,1.887437 -7.549749,0 0,-3.774874 -1.887435,0 0,-1.887437 -1.887435,0 0,3.774874 -1.887444,0 0,3.774874 1.887444,0 0,1.887436 1.887435,0 0,1.887437 -1.887435,0 0,1.887437 -1.887444,0 0,1.887437 -1.887435,0 0,-1.887437 -1.887435,0 0,-1.887437 -1.887435,0 0,3.774874 1.887435,0 0,1.887437 -1.887435,0 0,3.774872 -3.774879,0 0,1.887438 1.887444,0 0,1.887435 -1.887444,0 0,1.887444 5.662314,0 0,-1.887444 3.77487,0 0,1.887444 -1.887435,0 0,3.77487 -1.887435,0 0,7.549748 1.887435,0 0,1.88744 5.662314,0 0,-1.88744 -1.887435,0 0,-1.88743 1.887435,0 0,-3.77488 3.77487,0 0,-1.887438 -1.887435,0 0,-1.887435 -3.77487,0 0,1.887435 -1.887444,0 0,-3.77487 5.662314,0 0,-1.887444 1.887435,0 0,-1.887435 1.887435,0 0,-3.774875 -1.887435,0 0,3.774875 -7.549749,0 0,-1.887438 3.774879,0 0,-1.887437 -1.887435,0 0,-1.887435 9.437184,0 0,1.887435 3.77487,0 0,1.887437 -1.887435,0 0,1.887438 5.662305,0 0,-1.887438 -1.887435,0 0,-1.887437 -1.887435,0 0,-1.887435 1.887435,0 0,-1.887437 1.887435,0 0,3.774872 1.887444,0 0,-1.887435 5.662305,0 0,1.887435 -3.77487,0 0,1.887437 -1.887435,0 0,3.774873 -5.662314,0 0,1.887444 -1.887435,0 0,-1.887444 -1.887435,0 0,1.887444 -1.887444,0 0,3.77487 3.774879,0 0,1.887438 1.887435,0 0,1.88743 -1.887435,0 0,1.88745 3.77487,0 0,1.88743 1.887435,0 0,-1.88743 -1.887435,0 0,-5.662318 1.887435,0 0,1.887438 1.887444,0 0,3.77488 1.887435,0 0,-1.88745 3.77487,0 0,1.88745 -1.887435,0 0,1.88743 -3.77487,0 0,1.88744 -1.887444,0 0,1.88743 -1.887435,0 0,3.77488 -1.887435,0 0,-3.77488 -1.887435,0 0,1.88744 -1.887435,0 0,-3.77487 -1.887444,0 0,-1.88744 1.887444,0 0,-1.88743 -1.887444,0 0,1.88743 -3.77487,0 0,3.77487 -1.887435,0 0,3.77488 5.662305,0 0,3.77487 1.887444,0 0,1.88743 3.77487,0 0,-1.88743 -3.77487,0 0,-3.77487 3.77487,0 0,1.88743 1.887435,0 0,3.77487 1.887435,0 0,1.88744 -1.887435,0 0,1.88744 -1.887435,0 0,-1.88744 -1.887435,0 0,1.88744 -3.774879,0 0,1.88744 -3.77487,0 0,-3.77488 1.887435,0 0,-5.66231 -1.887435,0 0,1.88744 -1.887435,0 0,-1.88744 -1.887435,0 0,-1.88743 -1.887444,0 0,3.77487 -1.887435,0 0,1.88743 -1.887435,0 0,-1.88743 -1.887435,0 0,-1.88744 -1.887435,0 0,1.88744 -1.887444,0 0,3.77487 -1.887435,0 0,1.88744 -1.887435,0 0,-1.88744 -1.887435,0 0,1.88744 -1.887435,0 0,1.88744 -1.887444,0 0,1.88743 1.887444,0 0,1.88744 3.77487,0 0,-1.88744 1.887435,0 0,1.88744 3.774879,0 0,-1.88744 -1.887444,0 0,-1.88743 3.774879,0 0,-1.88744 1.887435,0 0,7.54974 1.887435,0 0,-1.88743 3.774879,0 0,1.88743 -1.887444,0 0,1.88745 1.887444,0 0,-1.88745 5.662305,0 0,1.88745 1.887435,0 0,1.88743 1.887444,0 0,-3.77488 -1.887444,0 0,-1.88743 3.774879,0 0,1.88743 1.887435,0 0,1.88745 1.887435,0 0,-1.88745 -1.887435,0 0,-3.77487 -1.887435,0 0,-3.77487 1.887435,0 0,1.88744 3.77487,0 0,1.88743 -1.887435,0 0,1.88744 1.887435,0 0,3.77488 3.774879,0 0,-1.88745 1.887435,0 0,-3.77487 3.77487,0 0,-1.88743 -1.887435,0 0,-1.88744 3.774879,0 0,5.66231 1.887435,0 0,1.88743 1.887435,0 0,1.88745 1.887435,0 0,-1.88745 -1.887435,0 0,-1.88743 -1.887435,0 0,-5.66231 -1.887435,0 0,-1.88744 3.77487,0 0,-3.77487 -1.887435,0 0,-1.88744 1.887435,0 0,-1.88743 1.887435,0 0,-1.88744 1.887433,0 0,-3.77487 1.88745,0 0,1.88743 3.77487,0 0,-1.88743 -1.88744,0 0,-7.54975 1.88744,0 0,-3.774873 -1.88744,0 0,-3.774879 1.88744,0 0,1.887444 1.88743,0 0,-1.887444 1.88744,0 0,-7.549745 3.77488,0 0,3.774872 -1.88744,0 0,3.774873 1.88744,0 0,1.887444 1.88743,0 0,1.887435 -3.77487,0 0,-1.887435 -1.88744,0 0,1.887435 1.88744,0 0,1.887435 -1.88744,0 0,1.887438 1.88744,0 0,-1.887438 3.77487,0 0,-1.887435 3.77487,0 0,-1.887435 1.88744,0 0,1.887435 1.88744,0 0,-1.887435 1.88743,0 0,3.77487 1.88744,0 0,-1.887435 1.88743,0 0,3.774873 1.88745,0 0,-3.774873 -1.88745,0 0,-3.774879 1.88745,0 0,-5.66231 1.88743,0 0,-1.887435 -1.88743,0 0,-1.887437 3.77487,0 0,-3.774874 -1.88744,0 0,-1.887437 1.88744,0 0,-1.887436 -1.88744,0 0,-5.662311 1.88744,0 0,1.887437 1.88743,0 0,1.887437 1.88744,0 0,-5.662311 -1.88744,0 0,1.887437 -1.88743,0 0,-7.549747 1.88743,0 0,-1.887437 1.88744,0 0,1.887437 1.88744,0 0,-1.887437 -1.88744,0 0,-1.887437 -1.88744,0 0,-1.887437 -1.88743,0 0,1.887437 1.88743,0 0,1.887437 -1.88743,0 0,1.887437 -1.88744,0 0,3.774874 -1.88743,0 0,-1.887437 -1.88745,0 0,3.774873 3.77488,0 0,1.887437 -3.77488,0 0,1.887437 -1.88743,0 0,-1.887437 -3.77487,0 0,-1.887437 1.88743,0 0,-1.887436 -1.88743,0 0,1.887436 -5.66231,0 0,1.887437 3.77487,0 0,3.774874 1.88744,0 0,1.887437 -1.88744,0 0,1.887436 1.88744,0 0,1.887437 1.88743,0 0,1.887437 -1.88743,0 0,1.887437 1.88743,0 0,1.887437 -1.88743,0 0,1.887435 -3.77488,0 0,-1.887435 -1.88743,0 0,-1.887437 1.88743,0 0,-1.887437 1.88744,0 0,-1.887437 -1.88744,0 0,1.887437 -1.88743,0 0,-1.887437 -1.88744,0 0,-1.887437 1.88744,0 0,-1.887436 -1.88744,0 0,-1.887437 -3.77487,0 0,1.887437 -1.88744,0 0,-1.887437 -1.88744,0 0,-3.774874 -3.77487,0 0,1.887437 -1.88743,0 0,1.887437 1.88743,0 0,1.887437 -1.88743,0 0,5.66231 -1.88745,0 0,1.887437 -1.887433,0 0,-5.662311 1.887433,0 0,-1.887436 -1.887433,0 0,-1.887437 -3.77487,0 0,-1.887437 1.887435,0 0,-1.887437 -3.77487,0 0,-1.887437 1.887435,0 0,-1.887436 -7.549749,0 0,-1.887437 1.887435,0 0,-1.887437 1.887435,0 0,-1.887437 1.887444,0 0,-1.887437 1.887435,0 0,-1.887437 -3.774879,0 0,-1.887437 -1.887435,0 m 32.086427,0 0,1.887437 1.88744,0 0,1.887437 1.88743,0 0,1.887437 1.88744,0 0,1.887437 -3.77487,0 0,1.887437 3.77487,0 0,-1.887437 1.88743,0 0,-1.887437 -1.88743,0 0,-1.887437 -1.88744,0 0,-1.887437 -1.88743,0 0,-1.887437 -1.88744,0 m -69.835163,3.774874 0,1.887437 1.887435,0 0,1.887437 -1.887435,0 0,-1.887437 -1.887435,0 0,-1.887437 1.887435,0 m 52.848233,0 0,1.887437 1.88744,0 0,-1.887437 -1.88744,0 m -45.298484,1.887437 0,1.887437 -1.887435,0 0,1.887437 1.887435,0 0,-1.887437 1.887435,0 0,-1.887437 -1.887435,0 m 16.986933,1.887437 0,1.887437 -1.887435,0 0,-1.887437 1.887435,0 m 26.424121,0 0,3.774874 1.88743,0 0,1.887436 3.77487,0 0,-1.887436 -1.88743,0 0,-1.887437 -1.88744,0 0,-1.887437 -1.88743,0 m 16.98692,0 0,1.887437 -1.88743,0 0,1.887437 1.88743,0 0,-1.887437 1.88744,0 0,-1.887437 -1.88744,0 m -35.861292,3.774874 0,1.887436 3.77487,0 0,1.887437 -1.887435,0 0,3.774874 1.887435,0 0,-1.887437 3.77487,0 0,1.887437 -3.77487,0 0,1.887437 -1.887435,0 0,-1.887437 -1.887435,0 0,3.774873 -1.887444,0 0,1.887437 3.774879,0 0,3.774874 -3.774879,0 0,-3.774874 -3.77487,0 0,3.774874 -3.77487,0 0,-3.774874 3.77487,0 0,-3.774873 -1.887435,0 0,-1.887437 7.549749,0 0,-1.887437 -1.887444,0 0,-5.66231 1.887444,0 m -43.41105,1.887436 0,1.887437 -1.887435,0 0,-1.887437 1.887435,0 m 60.397972,0 0,1.887437 -1.887433,0 0,1.887437 1.887433,0 0,-1.887437 1.88745,0 0,-1.887437 -1.88745,0 m 13.21207,1.887437 0,1.887437 1.88743,0 0,-1.887437 -1.88743,0 m -47.185925,1.887437 0,1.887437 1.887435,0 0,1.887437 3.77487,0 0,1.887436 -1.887435,0 0,1.887437 -1.887435,0 0,3.774874 -3.77487,0 0,-1.887437 1.887435,0 0,-1.887437 1.887435,0 0,-1.887437 -1.887435,0 0,-1.887436 -1.887435,0 0,-3.774874 1.887435,0 m 39.636175,0 0,1.887437 1.88743,0 0,1.887437 1.88744,0 0,1.887436 -1.88744,0 0,1.887437 -1.88743,0 0,-1.887437 1.88743,0 0,-1.887436 -1.88743,0 0,-1.887437 -1.88744,0 0,-1.887437 1.88744,0 m 11.32462,0 0,1.887437 1.88743,0 0,-1.887437 -1.88743,0 m 13.21206,0 0,1.887437 -1.88745,0 0,1.887437 3.77488,0 0,1.887436 -3.77488,0 0,-1.887436 -3.77487,0 0,-1.887437 3.77487,0 0,-1.887437 1.88745,0 m 9.43718,0 0,3.774874 -3.77488,0 0,1.887436 3.77488,0 0,-1.887436 1.88744,0 0,-1.887437 1.88743,0 0,-1.887437 -3.77487,0 m -100.034152,3.774874 0,1.887436 -1.887435,0 0,-1.887436 1.887435,0 m 39.636171,0 0,1.887436 1.887435,0 0,-1.887436 -1.887435,0 m 11.324619,0 0,3.774873 -1.887435,0 0,1.887437 1.887435,0 0,1.887437 -3.77487,0 0,-5.662311 1.887435,0 0,-1.887436 1.887435,0 m 7.549749,0 0,1.887436 -1.887435,0 0,-1.887436 1.887435,0 m 15.099503,1.887436 0,1.887437 1.88743,0 0,1.887437 1.88744,0 0,1.887437 -1.88744,0 0,1.887437 -1.88743,0 0,-3.774874 -1.88744,0 0,1.887437 -1.88744,0 0,-1.887437 1.88744,0 0,-3.774874 1.88744,0 m 13.21205,0 0,1.887437 1.88743,0 0,1.887437 1.88745,0 0,-1.887437 1.88743,0 0,1.887437 -1.88743,0 0,1.887437 -1.88745,0 0,-1.887437 -1.88743,0 0,1.887437 -1.88744,0 0,-1.887437 1.88744,0 0,-1.887437 -1.88744,0 0,-1.887437 1.88744,0 m -32.086423,1.887437 0,5.662311 1.887435,0 0,1.887435 -1.887435,0 0,-1.887435 -1.887435,0 0,3.774872 -3.774879,0 0,-1.887437 1.887435,0 0,-1.887435 1.887444,0 0,-5.662311 1.887435,0 m 41.523603,0 0,1.887437 1.88744,0 0,-1.887437 -1.88744,0 m 5.66232,0 0,1.887437 -1.88744,0 0,1.887437 1.88744,0 0,-1.887437 1.88743,0 0,1.887437 1.88744,0 0,-1.887437 -1.88744,0 0,-1.887437 -1.88743,0 m -101.921592,1.887437 0,1.887437 1.887435,0 0,-1.887437 -1.887435,0 m 32.086422,0 0,1.887437 -1.887435,0 0,-1.887437 1.887435,0 m 32.08643,0 0,1.887437 1.88744,0 0,-1.887437 1.88743,0 0,5.662309 -1.88743,0 0,-1.887435 -1.88744,0 0,-1.887437 -1.88743,0 0,1.887437 -1.88745,0 0,-1.887437 1.88745,0 0,-1.887437 1.88743,0 m -60.397982,1.887437 0,1.887437 1.887444,0 0,-1.887437 -1.887444,0 m 9.437184,1.887437 0,1.887435 1.887444,0 0,-1.887435 -1.887444,0 m 7.549749,0 0,5.66231 -1.887435,0 0,-5.66231 1.887435,0 m 66.060289,0 0,1.887435 1.88743,0 0,5.66231 -1.88743,0 0,-5.66231 -1.88744,0 0,1.887437 -1.88743,0 0,1.887438 -1.88744,0 0,1.887435 1.88744,0 0,1.887444 -1.88744,0 0,-1.887444 -1.88744,0 0,-1.887435 1.88744,0 0,-1.887438 1.88744,0 0,-1.887437 1.88743,0 0,-1.887435 1.88744,0 m -86.822092,1.887435 0,1.887437 1.887435,0 0,-1.887437 -1.887435,0 m 62.285422,0 0,1.887437 -1.88745,0 0,-1.887437 1.88745,0 m 16.98692,0 0,1.887437 -1.88743,0 0,5.662317 -1.88744,0 0,-3.774879 -1.88744,0 0,-1.887438 1.88744,0 0,-1.887437 3.77487,0 m -11.32462,1.887437 0,1.887438 -3.77487,0 0,-1.887438 3.77487,0 m -73.610036,1.887438 0,1.887435 1.887444,0 0,-1.887435 -1.887444,0 m 15.099498,0 0,5.662314 -5.662314,0 0,-5.662314 5.662314,0 m 45.298485,0 0,5.662314 -5.662314,0 0,-5.662314 5.662314,0 m 45.298483,0 0,5.662314 -5.66231,0 0,-5.662314 5.66231,0 m -94.371838,1.887435 0,1.887444 1.887435,0 0,-1.887444 -1.887435,0 m 41.523606,0 0,7.549752 -1.887435,0 0,-1.887438 -1.887435,0 0,-1.887435 -1.887444,0 0,-1.887435 1.887444,0 0,-1.887444 3.77487,0 m 3.77487,0 0,1.887444 1.887444,0 0,-1.887444 -1.887444,0 m 7.549749,0 0,3.774879 -1.887435,0 0,-3.774879 1.887435,0 m 37.748733,0 0,1.887444 1.88744,0 0,-1.887444 -1.88744,0 m -60.397971,1.887444 0,1.887435 -1.887435,0 0,-1.887435 1.887435,0 m 3.77487,0 0,1.887435 -1.887435,0 0,-1.887435 1.887435,0 m 22.649251,0 0,1.887435 1.88743,0 0,3.774873 -1.88743,0 0,3.77488 -1.88745,0 0,3.77487 -1.887433,0 0,3.77487 -1.887435,0 0,-1.88744 -1.887435,0 0,1.88744 -1.887435,0 0,1.88744 -7.549749,0 0,1.88743 1.887435,0 0,1.88744 3.77487,0 0,-1.88744 1.887444,0 0,1.88744 1.887435,0 0,1.88743 -1.887435,0 0,1.88744 -5.662314,0 0,1.88744 -1.887435,0 0,1.88744 1.887435,0 0,1.88743 -1.887435,0 0,3.77487 -1.887435,0 0,-1.88743 -1.887444,0 0,-1.88744 1.887444,0 0,-1.88743 -1.887444,0 0,-1.88744 1.887444,0 0,-1.88744 3.77487,0 0,-1.88744 -5.662314,0 0,-1.88743 3.774879,0 0,-1.88744 -1.887435,0 0,-1.88743 -1.887444,0 0,-1.88744 1.887444,0 0,1.88744 1.887435,0 0,-1.88744 5.662305,0 0,-1.88744 -1.887435,0 0,-1.88743 -1.887435,0 0,1.88743 -3.77487,0 0,-1.88743 3.77487,0 0,-1.88744 1.887435,0 0,-1.88743 1.887435,0 0,-3.77488 1.887444,0 0,-1.887438 1.887435,0 0,5.662318 1.887435,0 0,-3.77488 3.774868,0 0,-5.662308 1.88745,0 m -58.510552,3.77487 0,1.887438 -1.887435,0 0,-1.887438 1.887435,0 m 18.874368,0 0,1.887438 1.887444,0 0,3.77488 -3.774879,0 0,-1.88745 1.887435,0 0,-1.88743 -1.887435,0 0,-1.887438 1.887435,0 m 54.735674,0 0,1.887438 -3.77487,0 0,1.88743 3.77487,0 0,-1.88743 1.88743,0 0,-1.887438 -1.88743,0 m 3.77487,0 0,3.774868 1.88744,0 0,-3.774868 -1.88744,0 m -66.060284,1.887438 0,1.88743 1.887435,0 0,-1.88743 -1.887435,0 m -11.324628,1.88743 0,3.77488 -1.887435,0 0,1.88744 -1.887435,0 0,-1.88744 1.887435,0 0,-3.77488 1.887435,0 m -9.437184,1.88745 0,9.43718 1.887444,0 0,1.88743 1.887435,0 0,1.88744 -1.887435,0 0,1.88743 5.662305,0 0,-3.77487 -1.887435,0 0,-1.88743 -3.77487,0 0,-1.88744 1.887435,0 0,-1.88744 -1.887435,0 0,-5.6623 -1.887444,0 m 56.623104,0 0,1.88743 3.774879,0 0,1.88744 1.887435,0 0,-1.88744 1.887435,0 0,-1.88743 -1.887435,0 0,1.88743 -1.887435,0 0,-1.88743 -3.774879,0 m 50.960802,0 0,1.88743 3.77487,0 0,-1.88743 -3.77487,0 m -94.371843,1.88743 0,1.88744 -1.887435,0 0,1.88743 1.887435,0 0,-1.88743 1.887435,0 0,-1.88744 -1.887435,0 m 28.311552,0 0,1.88744 1.887435,0 0,-1.88744 -1.887435,0 m 47.185921,0 0,1.88744 -1.88744,0 0,1.88743 1.88744,0 0,-1.88743 1.88743,0 0,-1.88744 -1.88743,0 m -52.848235,3.77487 0,1.88744 -1.887435,0 0,-1.88744 1.887435,0 m 56.623105,1.88744 0,1.88744 -1.88744,0 0,-1.88744 1.88744,0 m 18.87437,0 0,1.88744 -1.88744,0 0,-1.88744 1.88744,0 m -96.259278,3.77487 0,1.88744 1.887435,0 0,-1.88744 -1.887435,0 m 79.272338,0 0,1.88744 -5.6623,0 0,-1.88744 5.6623,0 m -71.722589,1.88744 0,1.88743 1.887435,0 0,1.88744 -3.77487,0 0,1.88744 -1.887444,0 0,1.88744 -1.887435,0 0,-1.88744 1.887435,0 0,-1.88744 1.887444,0 0,-3.77487 1.887435,0 m 7.549749,0 0,1.88743 3.77487,0 0,1.88744 -1.887435,0 0,1.88744 -1.887435,0 0,1.88744 3.77487,0 0,1.88743 -1.887435,0 0,1.88744 -1.887435,0 0,-3.77487 -1.887444,0 0,1.88743 -1.887435,0 0,-3.77487 3.774879,0 0,-1.88744 -1.887444,0 0,-3.77487 1.887444,0 m 26.424108,0 0,1.88743 1.887444,0 0,-1.88743 -1.887444,0 m 26.424122,0 0,1.88743 1.88743,0 0,-1.88743 -1.88743,0 m -9.43719,1.88743 0,1.88744 -1.88743,0 0,1.88744 -1.88744,0 0,-3.77488 3.77487,0 m 20.7618,1.88744 0,1.88744 -1.88743,0 0,1.88744 5.66231,0 0,-1.88744 -1.88743,0 0,-1.88744 -1.88745,0 m -81.159773,3.77488 0,1.88743 -1.887435,0 0,-1.88743 1.887435,0 m 26.424117,0 0,1.88743 -1.887444,0 0,-1.88743 1.887444,0 m 49.073356,0 0,1.88743 -3.77488,0 0,-1.88743 3.77488,0 m -7.54975,3.77487 0,1.88743 -1.88743,0 0,-1.88743 1.88743,0 m 15.0995,1.88743 0,1.88745 1.88743,0 0,-1.88745 -1.88743,0 m 16.98692,0 0,1.88745 1.88745,0 0,-1.88745 -1.88745,0 m -105.696457,1.88745 0,1.88743 -1.887435,0 0,-1.88743 1.887435,0 m 9.437184,0 0,3.77487 1.887435,0 0,1.88743 1.887444,0 0,1.88744 -1.887444,0 0,1.88744 1.887444,0 0,1.88744 1.887435,0 0,-1.88744 1.887435,0 0,1.88744 -1.887435,0 0,1.88743 -1.887435,0 0,-1.88743 -3.774879,0 0,-3.77488 1.887435,0 0,-1.88744 -1.887435,0 0,-1.88743 -1.887435,0 0,-3.77487 1.887435,0 m 66.060293,1.88743 0,3.77487 1.88743,0 0,-1.88743 1.88744,0 0,1.88743 1.88744,0 0,1.88744 3.77487,0 0,1.88744 1.88743,0 0,-3.77488 -1.88743,0 0,-3.77487 -1.88744,0 0,3.77487 -1.88743,0 0,-1.88743 -1.88744,0 0,-1.88744 -3.77487,0 m -58.510544,1.88744 0,1.88743 1.887435,0 0,1.88744 -3.77487,0 0,-3.77487 1.887435,0 m 35.861301,0 0,5.66231 -5.662314,0 0,-5.66231 5.662314,0 m 45.298483,0 0,5.66231 -5.66231,0 0,-5.66231 5.66231,0 m 7.54974,0 0,1.88743 -1.88743,0 0,-1.88743 1.88743,0 m -113.246206,1.88743 0,13.21207 13.212063,0 0,-13.21207 -13.212063,0 m 56.623104,0 0,1.88744 1.887444,0 0,-1.88744 -1.887444,0 m 45.298482,0 0,1.88744 1.88744,0 0,-1.88744 -1.88744,0 m -90.596958,1.88744 0,9.43718 -9.437184,0 0,-9.43718 9.437184,0 m -7.549749,1.88744 0,5.66231 5.662305,0 0,-5.66231 -5.662305,0 m 50.96079,1.88744 0,1.88743 1.887435,0 0,1.88744 -1.887435,0 0,-1.88744 -1.887435,0 0,-1.88743 1.887435,0 m 30.198987,0 0,1.88743 -3.77487,0 0,-1.88743 3.77487,0 m 16.98693,0 0,1.88743 1.88744,0 0,1.88744 -1.88744,0 0,-1.88744 -1.88743,0 0,-1.88743 1.88743,0 m 11.32462,0 0,1.88743 -1.88743,0 0,-1.88743 1.88743,0 m -43.41104,1.88743 0,1.88744 3.77487,0 0,-1.88744 -3.77487,0 m -5.662313,1.88744 0,3.77488 1.887433,0 0,-1.88745 1.88745,0 0,1.88745 1.88743,0 0,-1.88745 -1.88743,0 0,-1.88743 -3.774883,0 m 35.861303,0 0,1.88743 -3.77487,0 0,-1.88743 3.77487,0 m -28.31155,1.88743 0,1.88745 1.88743,0 0,-1.88745 -1.88743,0 z"
       style="fill:#000000;stroke:none"
       inkscape:connector-curvature="0" />
  </g>
</svg>
