<?xml version="1.0" encoding="UTF-8" standalone="no"?>
<!-- Created with Inkscape (http://www.inkscape.org/) -->

<svg
   xmlns:dc="http://purl.org/dc/elements/1.1/"
   xmlns:cc="http://creativecommons.org/ns#"
   xmlns:rdf="http://www.w3.org/1999/02/22-rdf-syntax-ns#"
   xmlns:svg="http://www.w3.org/2000/svg"
   xmlns="http://www.w3.org/2000/svg"
   xmlns:sodipodi="http://sodipodi.sourceforge.net/DTD/sodipodi-0.dtd"
   xmlns:inkscape="http://www.inkscape.org/namespaces/inkscape"
   width="90mm"
   height="50mm"
   id="svg5444"
   version="1.1"
   inkscape:version="0.48.0 r9654"
   sodipodi:docname="New document 26">
  <defs
     id="defs3" />
  <sodipodi:namedview
     id="base"
     pagecolor="#ffffff"
     bordercolor="#666666"
     borderopacity="1.0"
     inkscape:pageopacity="0.0"
     inkscape:pageshadow="2"
     inkscape:zoom="1"
     inkscape:cx="15"
     inkscape:cy="90"
     inkscape:document-units="mm"
     inkscape:current-layer="layer1"
     showgrid="false"
     inkscape:window-width="1920"
     inkscape:window-height="999"
     inkscape:window-x="0"
     inkscape:window-y="24"
     inkscape:window-maximized="1" />
  <metadata
     id="metadata5448">
    <rdf:RDF>
      <cc:Work
         rdf:about="">
        <dc:format>image/svg+xml</dc:format>
        <dc:type
           rdf:resource="http://purl.org/dc/dcmitype/StillImage" />
        <dc:title></dc:title>
      </cc:Work>
    </rdf:RDF>
  </metadata>
  <g
     inkscape:label="Layer 1"
     inkscape:groupmode="layer"
     id="layer1">
    <path
       id="path5435"
       d="m 21.466667,62.798692 0,12.6 12.6,0 0,-12.6 -12.6,0 m 14.4,0 0,1.8 1.8,0 0,1.8 1.8,0 0,1.8 -1.8,0 0,5.4 -1.8,0 0,3.6 3.6,0 0,1.8 -5.4,0 0,-1.8 -1.8,0 0,1.8 -1.8,0 0,-1.8 -3.6,0 0,7.2 1.8,0 0,-5.4 1.8,0 0,5.4 1.8,0 0,1.8 1.8,0 0,1.8 -1.8,0 0,1.8 3.6,0 0,1.8 -3.6,0 0,1.8 3.6,0 0,1.8 -3.6,0 0,1.8 1.8,0 0,1.8 -1.8,0 0,1.799998 1.8,0 0,1.8 -1.8,0 0,1.8 -3.6,0 0,-8.999998 1.8,0 0,-1.8 -1.8,0 0,1.8 -1.8,0 0,-1.8 -1.8,0 0,-1.8 1.8,0 0,-1.8 1.8,0 0,-1.8 1.8,0 0,-1.8 -1.8,0 0,1.8 -1.8,0 0,-1.8 -5.4,0 0,1.8 1.8,0 0,1.8 -1.8,0 0,1.8 1.8,0 0,3.6 -1.8,0 0,1.8 1.8,0 0,3.599998 -1.8,0 0,9 1.8,0 0,1.8 1.8,0 0,-1.8 1.8,0 0,1.8 1.8,0 0,1.8 -3.6,0 0,1.8 1.8,0 0,1.8 -3.6,0 0,1.8 -1.8,0 0,1.8 1.8,0 0,3.6 1.8,0 0,3.6 -1.8,0 0,-1.8 -1.8,0 0,5.4 1.8,0 0,-1.8 5.4,0 0,1.8 -3.6,0 0,1.8 -1.8,0 0,1.8 -1.8,0 0,1.8 1.8,0 0,-1.8 1.8,0 0,-1.8 1.8,0 0,3.6 -1.8,0 0,1.8 -3.6,0 0,1.8 1.8,0 0,1.8 3.6,0 0,1.8 1.8,0 0,-1.8 -1.8,0 0,-1.8 7.2,0 0,1.8 -1.8,0 0,1.8 3.6,0 0,1.8 1.8,0 0,-1.8 3.6,0 0,7.2 1.8,0 0,1.8 -3.6,0 0,1.8 -3.6,0 0,3.6 1.8,0 0,-1.8 1.8,0 0,-1.8 3.6,0 0,1.8 1.8,0 0,1.8 5.4,0 0,-1.8 1.8,0 0,-3.6 3.6,0 0,-1.8 1.8,0 0,3.6 1.8,0 0,-3.6 3.6,0 0,-1.8 1.8,0 0,1.8 1.8,0 0,1.8 -5.4,0 0,3.6 1.8,0 0,1.8 1.8,0 0,-1.8 1.8,0 0,-3.6 3.6,0 0,3.6 1.8,0 0,-3.6 -1.8,0 0,-1.8 3.6,0 0,1.8 1.8,0 0,1.8 -1.8,0 0,1.8 1.8,0 0,1.8 7.2,0 0,-1.8 1.8,0 0,-1.8 1.8,0 0,-1.8 -1.8,0 0,1.8 -1.8,0 0,-5.4 1.8,0 0,1.8 5.4,0 0,1.8 -1.8,0 0,3.6 -1.8,0 0,1.8 1.8,0 0,-1.8 1.8,0 0,1.8 1.8,0 0,-1.8 -1.8,0 0,-3.6 3.6,0 0,3.6 1.8,0 0,1.8 1.8,0 0,-1.8 1.8,0 0,1.8 1.800003,0 0,-1.8 1.8,0 0,1.8 7.2,0 0,-1.8 3.6,0 0,1.8 1.8,0 0,-1.8 -1.8,0 0,-1.8 3.6,0 0,-1.8 -3.6,0 0,-1.8 3.6,0 0,-3.6 -3.6,0 0,-3.6 -1.8,0 0,-1.8 3.6,0 0,1.8 1.8,0 0,-1.8 -1.8,0 0,-3.6 1.8,0 0,-1.8 -1.8,0 0,-1.8 1.8,0 0,-3.6 -3.6,0 0,-3.6 1.8,0 0,-1.8 1.8,0 0,-10.8 -3.6,0 0,-1.8 3.6,0 0,-1.8 -3.6,0 0,-1.8 -1.8,0 0,-1.8 3.6,0 0,-1.8 -1.8,0 0,-1.8 1.8,0 0,-1.8 1.8,0 0,-3.599998 -1.8,0 0,-1.8 1.8,0 0,-10.8 -1.8,0 0,1.8 -3.6,0 0,-1.8 1.8,0 0,-1.8 3.6,0 0,-3.6 -1.8,0 0,1.8 -3.6,0 0,-1.8 1.8,0 0,-1.8 -5.4,0 0,1.8 -1.8,0 0,-3.6 -1.8,0 0,1.8 -3.6,0 0,-1.8 1.8,0 0,-3.6 -1.8,0 0,1.8 -1.800003,0 0,-7.2 1.800003,0 0,1.8 1.8,0 0,-1.8 -1.8,0 0,-3.6 -1.800003,0 0,-1.8 -1.8,0 0,1.8 -1.8,0 0,1.8 3.6,0 0,1.8 -5.4,0 0,1.8 -3.6,0 0,7.2 1.8,0 0,-5.4 1.8,0 0,7.2 1.8,0 0,3.6 3.6,0 0,3.6 -3.6,0 0,-1.8 -1.8,0 0,-3.6 -1.8,0 0,-1.8 -3.6,0 0,-1.8 -3.6,0 0,-3.6 1.8,0 0,1.8 1.8,0 0,-1.8 -1.8,0 0,-1.8 1.8,0 0,-3.6 3.6,0 0,-1.8 1.8,0 0,-1.8 -1.8,0 0,-1.8 -1.8,0 0,1.8 -1.8,0 0,-1.8 -1.8,0 0,1.8 -1.8,0 0,-1.8 -1.8,0 0,3.6 5.4,0 0,1.8 -3.6,0 0,1.8 1.8,0 0,1.8 -1.8,0 0,1.8 -1.8,0 0,1.8 -1.8,0 0,-1.8 -1.8,0 0,1.8 -1.8,0 0,-1.8 -1.8,0 0,-1.8 1.8,0 0,-1.8 3.6,0 0,1.8 1.8,0 0,-1.8 -1.8,0 0,-3.6 -5.4,0 0,-1.8 5.4,0 0,-1.8 -7.2,0 0,3.6 -3.6,0 0,-1.8 1.8,0 0,-1.8 -7.2,0 0,7.2 -1.8,0 0,-1.8 -1.8,0 0,-1.8 1.8,0 0,-1.8 -1.8,0 0,-1.8 -3.6,0 0,1.8 1.8,0 0,1.8 -3.6,0 0,-3.6 -5.4,0 0,1.8 -1.8,0 0,-1.8 -1.8,0 0,1.8 -1.8,0 0,1.8 -3.6,0 0,-1.8 1.8,0 0,-1.8 -1.8,0 0,1.8 -1.8,0 0,-1.8 -3.6,0 m 68.400003,0 0,12.6 12.6,0 0,-12.6 -12.6,0 m -72.000003,1.8 0,9 -9,0 0,-9 9,0 m 16.2,0 0,3.6 3.6,0 0,-3.6 1.8,0 0,3.6 7.2,0 0,1.8 1.8,0 0,3.6 1.8,0 0,3.6 -3.6,0 0,1.8 -5.4,0 0,-1.8 -3.6,0 0,1.8 1.8,0 0,1.8 -5.4,0 0,1.8 1.8,0 0,1.8 -1.8,0 0,1.8 1.8,0 0,1.8 1.8,0 0,-3.6 1.8,0 0,1.8 3.6,0 0,1.8 1.8,0 0,-1.8 1.8,0 0,-1.8 1.8,0 0,1.8 1.8,0 0,3.6 3.6,0 0,1.8 5.4,0 0,1.8 1.8,0 0,3.6 1.8,0 0,-3.6 3.6,0 0,-3.6 -1.8,0 0,1.8 -1.8,0 0,-1.8 -3.6,0 0,-1.8 3.6,0 0,-3.6 1.8,0 0,3.6 1.8,0 0,1.8 1.8,0 0,-7.2 -1.8,0 0,-1.8 1.8,0 0,1.8 1.8,0 0,-1.8 1.8,0 0,-1.8 1.8,0 0,1.8 3.6,0 0,1.8 -3.6,0 0,1.8 5.4,0 0,1.8 1.8,0 0,1.8 3.6,0 0,-1.8 1.800003,0 0,-1.8 1.8,0 0,-1.8 3.6,0 0,1.8 1.8,0 0,-1.8 3.6,0 0,3.6 -1.8,0 0,-1.8 -1.8,0 0,1.8 -1.8,0 0,3.6 3.6,0 0,-1.8 1.8,0 0,1.8 1.8,0 0,1.8 1.8,0 0,3.6 -1.8,0 0,3.6 1.8,0 0,3.599998 -9,0 0,1.8 1.8,0 0,1.8 -5.4,0 0,-1.8 1.8,0 0,-1.8 1.8,0 0,-1.8 -3.6,0 0,-1.799998 1.8,0 0,-1.8 -5.400003,0 0,1.8 -1.8,0 0,-1.8 -1.8,0 0,-1.8 3.6,0 0,-1.8 -1.8,0 0,-3.6 -1.8,0 0,3.6 -3.6,0 0,1.8 1.8,0 0,1.8 -1.8,0 0,1.8 1.8,0 0,3.599998 1.8,0 0,-1.8 1.8,0 0,1.8 -1.8,0 0,3.6 -1.8,0 0,1.8 -1.8,0 0,-3.6 -1.8,0 0,3.6 -1.8,0 0,-1.8 -1.8,0 0,1.8 -1.8,0 0,1.8 -1.8,0 0,-1.8 1.8,0 0,-5.4 1.8,0 0,1.8 3.6,0 0,-1.8 1.8,0 0,-3.599998 -1.8,0 0,1.799998 -1.8,0 0,-1.799998 -3.6,0 0,1.799998 -3.6,0 0,1.8 -1.8,0 0,-1.8 -1.8,0 0,-1.799998 -1.8,0 0,1.799998 -3.6,0 0,1.8 5.4,0 0,3.6 1.8,0 0,-1.8 3.6,0 0,1.8 -3.6,0 0,1.8 1.8,0 0,1.8 -1.8,0 0,-1.8 -1.8,0 0,-1.8 -1.8,0 0,1.8 -1.8,0 0,-1.8 1.8,0 0,-1.8 -5.4,0 0,1.8 -1.8,0 0,-1.8 -1.8,0 0,-1.8 -1.8,0 0,-1.8 -1.8,0 0,-3.599998 -1.8,0 0,5.399998 1.8,0 0,3.6 -3.6,0 0,-3.6 -1.8,0 0,1.8 -3.6,0 0,-1.8 3.6,0 0,-1.8 1.8,0 0,-1.799998 -1.8,0 0,-1.8 3.6,0 0,-1.8 -5.4,0 0,1.8 -1.8,0 0,1.8 -1.8,0 0,-1.8 1.8,0 0,-1.8 1.8,0 0,-1.8 1.8,0 0,-5.4 -1.8,0 0,3.6 -3.6,0 0,1.8 -1.8,0 0,1.8 -1.8,0 0,-5.4 1.8,0 0,-1.8 -1.8,0 0,-1.8 -1.8,0 0,-1.8 -1.8,0 0,1.8 -1.8,0 0,-1.8 1.8,0 0,-1.8 -1.8,0 0,-1.8 -3.6,0 0,1.8 1.8,0 0,1.8 -3.6,0 0,1.8 -3.6,0 0,-1.8 -1.8,0 0,-1.8 1.8,0 0,-1.8 -1.8,0 0,-1.8 1.8,0 0,1.8 5.4,0 0,-1.8 10.8,0 0,-1.8 -9,0 0,-5.4 -1.8,0 0,-1.8 3.6,0 0,-1.8 1.8,0 0,-1.8 1.8,0 0,-1.8 1.8,0 m 19.8,0 0,1.8 1.8,0 0,3.6 -3.6,0 0,-5.4 1.8,0 m 23.4,0 0,1.8 -1.8,0 0,-1.8 1.8,0 m 23.400003,0 0,9 -9,0 0,-9 9,0 m -90.000003,1.8 0,5.4 5.4,0 0,-5.4 -5.4,0 m 82.800003,0 0,5.4 5.4,0 0,-5.4 -5.4,0 m -63.000003,1.8 0,1.8 1.8,0 0,-1.8 -1.8,0 m 28.8,0 0,1.8 1.8,0 0,-1.8 1.8,0 0,1.8 -1.8,0 0,1.8 -1.8,0 0,-1.8 -1.8,0 0,-1.8 1.8,0 m -25.2,1.8 0,1.8 1.8,0 0,-1.8 -1.8,0 m 5.4,0 0,5.4 1.8,0 0,-5.4 -1.8,0 m 3.6,0 0,1.8 3.6,0 0,-1.8 -3.6,0 m 39.6,0 0,1.8 -3.6,0 0,-1.8 3.6,0 m -54,1.8 0,3.6 1.8,0 0,-3.6 -1.8,0 m 28.8,0 0,5.4 -5.4,0 0,-5.4 5.4,0 m -32.4,1.8 0,1.8 -1.8,0 0,-1.8 1.8,0 m 7.2,0 0,1.8 1.8,0 0,-1.8 -1.8,0 m 3.6,0 0,1.8 1.8,0 0,-1.8 -1.8,0 m 7.2,0 0,3.6 1.8,0 0,-3.6 -1.8,0 m 3.6,0 0,1.8 1.8,0 0,-1.8 -1.8,0 m 7.2,0 0,1.8 1.8,0 0,-1.8 -1.8,0 m 7.2,0 0,1.8 1.8,0 0,1.8 3.6,0 0,1.8 -5.4,0 0,-1.8 -1.8,0 0,-3.6 1.8,0 m 21.6,0 0,1.8 1.8,0 0,3.6 1.800003,0 0,1.8 -1.800003,0 0,-1.8 -3.6,0 0,-5.4 1.8,0 m -75.6,3.6 0,1.8 3.6,0 0,-1.8 -3.6,0 m 93.600003,0 0,1.8 1.8,0 0,-1.8 -1.8,0 m -46.800003,1.8 0,3.6 1.8,0 0,1.8 1.8,0 0,-5.4 1.8,0 0,1.8 1.8,0 0,5.4 -3.6,0 0,1.8 -1.8,0 0,-1.8 -3.6,0 0,-5.4 -1.8,0 0,1.8 -1.8,0 0,-1.8 1.8,0 0,-1.8 3.6,0 m -46.8,1.8 0,3.6 3.6,0 0,-3.6 -3.6,0 m 36,0 0,1.8 1.8,0 0,-1.8 1.8,0 0,1.8 -1.8,0 0,1.8 -3.6,0 0,-3.6 1.8,0 m 28.8,0 0,1.8 -1.8,0 0,1.8 1.8,0 0,3.6 -1.8,0 0,1.8 3.6,0 0,1.8 -1.8,0 0,1.8 -3.6,0 0,1.8 -3.6,0 0,1.8 -1.8,0 0,1.8 1.8,0 0,-1.8 3.6,0 0,-1.8 1.8,0 0,1.8 3.6,0 0,-1.8 1.8,0 0,-1.8 1.8,0 0,-1.8 1.8,0 0,-1.8 1.8,0 0,-1.8 -1.8,0 0,1.8 -1.8,0 0,-3.6 -3.6,0 0,-1.8 -1.8,0 0,-1.8 1.8,0 0,-1.8 -1.8,0 m -39.6,1.8 0,1.8 1.8,0 0,-1.8 -1.8,0 m 55.800003,1.8 0,1.8 -1.8,0 0,1.8 -1.800003,0 0,3.6 1.800003,0 0,1.8 1.8,0 0,1.8 1.8,0 0,1.8 1.8,0 0,-1.8 -1.8,0 0,-1.8 1.8,0 0,-3.6 -1.8,0 0,-3.6 1.8,0 0,-1.8 -3.6,0 m -61.200003,1.8 0,1.8 1.8,0 0,1.8 1.8,0 0,-1.8 1.8,0 0,1.8 -1.8,0 0,1.8 -7.2,0 0,1.8 1.8,0 0,1.8 -1.8,0 0,1.8 3.6,0 0,3.599998 1.8,0 0,-3.599998 1.8,0 0,3.599998 -1.8,0 0,5.4 1.8,0 0,1.8 5.4,0 0,1.8 1.8,0 0,-3.6 3.6,0 0,3.6 1.8,0 0,1.8 3.6,0 0,-1.8 -1.8,0 0,-1.8 1.8,0 0,1.8 3.6,0 0,1.8 -3.6,0 0,1.8 3.6,0 0,1.8 5.4,0 0,5.4 1.8,0 0,-5.4 1.8,0 0,-3.6 7.2,0 0,1.8 1.8,0 0,-1.8 5.4,0 0,1.8 1.8,0 0,1.8 1.8,0 0,-1.8 1.8,0 0,-1.8 -3.6,0 0,-1.8 3.6,0 0,1.8 1.8,0 0,-1.8 1.8,0 0,1.8 3.600003,0 0,5.4 -1.800003,0 0,-3.6 -1.8,0 0,1.8 -3.6,0 0,1.8 1.8,0 0,1.8 7.200003,0 0,-1.8 1.8,0 0,-1.8 1.8,0 0,1.8 -1.8,0 0,1.8 5.4,0 0,-1.8 1.8,0 0,1.8 -1.8,0 0,1.8 1.8,0 0,1.8 1.8,0 0,1.8 1.8,0 0,1.8 -5.4,0 0,1.8 -10.800003,0 0,1.8 -1.8,0 0,-5.4 1.8,0 0,-1.8 1.800003,0 0,1.8 -1.800003,0 0,1.8 3.600003,0 0,-3.6 1.8,0 0,1.8 3.6,0 0,1.8 1.8,0 0,-1.8 1.8,0 0,-1.8 -3.6,0 0,-1.8 -14.400003,0 0,1.8 1.8,0 0,1.8 -1.8,0 0,-1.8 -3.6,0 0,3.6 5.4,0 0,1.8 -1.8,0 0,3.6 1.8,0 0,3.6 1.8,0 0,-1.8 1.8,0 0,1.8 1.800003,0 0,-5.4 3.6,0 0,1.8 1.8,0 0,-1.8 5.4,0 0,1.8 1.8,0 0,1.8 -1.8,0 0,3.6 1.8,0 0,1.8 -1.8,0 0,-1.8 -3.6,0 0,3.6 3.6,0 0,1.8 -5.4,0 0,-3.6 -1.8,0 0,3.6 -3.6,0 0,3.6 -1.800003,0 0,-3.6 1.800003,0 0,-1.8 1.8,0 0,-1.8 -3.600003,0 0,1.8 -5.4,0 0,-1.8 -3.6,0 0,-1.8 -1.8,0 0,3.6 3.6,0 0,1.8 -7.2,0 0,1.8 -7.2,0 0,-1.8 -5.4,0 0,-1.8 1.8,0 0,-1.8 3.6,0 0,-5.4 -5.4,0 0,-1.8 5.4,0 0,1.8 1.8,0 0,-3.6 1.8,0 0,-1.8 1.8,0 0,-1.8 1.8,0 0,-1.8 1.8,0 0,-1.8 1.8,0 0,-1.8 -3.6,0 0,-1.8 -1.8,0 0,3.6 -3.6,0 0,-1.8 1.8,0 0,-1.8 -5.4,0 0,3.6 -1.8,0 0,-1.8 -1.8,0 0,1.8 -1.8,0 0,1.8 -3.6,0 0,1.8 -3.6,0 0,-1.8 -3.6,0 0,5.4 -3.6,0 0,1.8 -3.6,0 0,-3.6 1.8,0 0,-7.2 -1.8,0 0,-1.8 -1.8,0 0,1.8 -7.2,0 0,-1.8 3.6,0 0,-1.8 -1.8,0 0,-1.8 -1.8,0 0,1.8 -10.8,0 0,1.8 9,0 0,3.6 -1.8,0 0,-1.8 -1.8,0 0,1.8 -3.6,0 0,1.8 -1.8,0 0,1.8 1.8,0 0,1.8 -1.8,0 0,1.8 1.8,0 0,1.8 1.8,0 0,-5.4 5.4,0 0,-1.8 1.8,0 0,-1.8 5.4,0 0,1.8 1.8,0 0,5.4 -1.8,0 0,1.8 1.8,0 0,3.6 3.6,0 0,-1.8 1.8,0 0,3.6 1.8,0 0,-1.8 1.8,0 0,1.8 -1.8,0 0,1.8 -1.8,0 0,3.6 1.8,0 0,3.6 1.8,0 0,-3.6 1.8,0 0,5.4 1.8,0 0,-1.8 1.8,0 0,1.8 -1.8,0 0,1.8 -1.8,0 0,-1.8 -3.6,0 0,-1.8 -1.8,0 0,-3.6 -1.8,0 0,5.4 -1.8,0 0,1.8 -3.6,0 0,1.8 3.6,0 0,1.8 -1.8,0 0,3.6 -1.8,0 0,-3.6 -3.6,0 0,1.8 -1.8,0 0,-1.8 1.8,0 0,-1.8 1.8,0 0,-3.6 5.4,0 0,-3.6 -1.8,0 0,-1.8 -1.8,0 0,1.8 -1.8,0 0,-1.8 1.8,0 0,-1.8 5.4,0 0,-1.8 1.8,0 0,-1.8 -3.6,0 0,1.8 -5.4,0 0,1.8 -3.6,0 0,1.8 1.8,0 0,3.6 -1.8,0 0,-3.6 -1.8,0 0,-1.8 -3.6,0 0,1.8 -1.8,0 0,-1.8 -1.8,0 0,-1.8 -7.2,0 0,1.8 -1.8,0 0,-1.8 1.8,0 0,-1.8 3.6,0 0,-1.8 -1.8,0 0,-3.6 1.8,0 0,3.6 1.8,0 0,-1.8 1.8,0 0,-1.8 -1.8,0 0,-1.8 -1.8,0 0,-1.8 -1.8,0 0,-1.8 -1.8,0 0,-3.6 1.8,0 0,3.6 1.8,0 0,-5.4 -1.8,0 0,-1.8 -1.8,0 0,-1.8 5.4,0 0,-1.8 7.2,0 0,-1.8 -1.8,0 0,-3.6 1.8,0 0,-1.8 -1.8,0 0,-1.8 3.6,0 0,-5.4 -7.2,0 0,-1.799998 3.6,0 0,-1.8 -1.8,0 0,-1.8 1.8,0 0,-1.8 -1.8,0 0,-1.8 1.8,0 0,-1.8 1.8,0 0,-3.6 1.8,0 m -14.4,1.8 0,1.8 -1.8,0 0,1.8 -1.8,0 0,-1.8 1.8,0 0,-1.8 1.8,0 m 25.2,0 0,1.8 1.8,0 0,-1.8 -1.8,0 m 7.2,0 0,5.4 1.8,0 0,1.8 1.8,0 0,1.8 1.8,0 0,3.599998 3.6,0 0,3.6 1.8,0 0,-3.6 1.8,0 0,-1.799998 -1.8,0 0,1.799998 -1.8,0 0,-3.599998 5.4,0 0,1.8 1.8,0 0,-1.8 -1.8,0 0,-1.8 -5.4,0 0,-1.8 -1.8,0 0,1.8 1.8,0 0,1.8 -3.6,0 0,-7.2 -1.8,0 0,-1.8 -3.6,0 m 32.4,1.8 0,1.8 -1.8,0 0,1.8 -1.8,0 0,1.8 -1.8,0 0,-1.8 1.8,0 0,-1.8 1.8,0 0,-1.8 1.8,0 m 10.800003,0 0,1.8 -1.8,0 0,-1.8 1.8,0 m 7.2,0 0,1.8 -1.8,0 0,1.8 3.6,0 0,1.8 -3.6,0 0,1.8 3.6,0 0,-1.8 1.8,0 0,-1.8 -1.8,0 0,-3.6 -1.8,0 m -46.800003,1.8 0,1.8 -1.8,0 0,-1.8 1.8,0 m -18,1.8 0,1.8 -3.6,0 0,-1.8 3.6,0 m -19.8,1.8 0,1.8 1.8,0 0,3.599998 -1.8,0 0,-3.599998 -1.8,0 0,-1.8 1.8,0 m 25.2,1.8 0,1.8 -3.6,0 0,-1.8 3.6,0 m 55.800003,1.8 0,1.799998 5.4,0 0,-1.799998 -5.4,0 m -54.000003,1.799998 0,1.8 -1.8,0 0,-1.8 1.8,0 m 48.600003,0 0,3.6 -1.800003,0 0,1.8 1.800003,0 0,3.6 -1.800003,0 0,-1.8 -1.8,0 0,-3.6 1.8,0 0,-3.6 1.800003,0 m -75.600003,1.8 0,3.6 -1.8,0 0,-3.6 1.8,0 m 14.4,0 0,1.8 -5.4,0 0,1.8 -1.8,0 0,-1.8 1.8,0 0,-1.8 5.4,0 m 9,0 0,1.8 1.8,0 0,1.8 -1.8,0 0,-1.8 -1.8,0 0,-1.8 1.8,0 m -19.8,1.8 0,1.8 -1.8,0 0,-1.8 1.8,0 m 82.800003,1.8 0,1.8 -1.8,0 0,-1.8 1.8,0 m -75.600003,1.8 0,5.4 -5.4,0 0,-5.4 5.4,0 m 7.2,0 0,1.8 -3.6,0 0,3.6 1.8,0 0,1.8 1.8,0 0,-3.6 3.6,0 0,-1.8 -1.8,0 0,-1.8 -1.8,0 m 28.8,0 0,5.4 -5.4,0 0,-5.4 5.4,0 m 36.000003,0 0,5.4 -5.4,0 0,-5.4 5.4,0 m -75.600003,1.8 0,1.8 1.8,0 0,-1.8 -1.8,0 m 16.2,0 0,1.8 1.8,0 0,1.8 -3.6,0 0,3.6 1.8,0 0,1.8 1.8,0 0,-1.8 -1.8,0 0,-1.8 3.6,0 0,3.6 1.8,0 0,1.8 5.4,0 0,-1.8 -1.8,0 0,-1.8 3.6,0 0,5.4 3.6,0 0,1.8 1.8,0 0,-5.4 1.8,0 0,-1.8 -3.6,0 0,-1.8 -3.6,0 0,-1.8 -1.8,0 0,1.8 -1.8,0 0,-1.8 -5.4,0 0,-1.8 -1.8,0 0,-1.8 -1.8,0 m 5.4,0 0,1.8 1.8,0 0,-1.8 -1.8,0 m 14.4,0 0,1.8 1.8,0 0,-1.8 -1.8,0 m 36.000003,0 0,1.8 1.8,0 0,-1.8 -1.8,0 m -9.000003,1.8 0,1.8 1.8,0 0,-1.8 -1.8,0 m -73.8,1.8 0,1.8 1.8,0 0,-1.8 -1.8,0 m 54,0 0,1.8 -1.8,0 0,3.6 1.8,0 0,-1.8 5.4,0 0,1.8 1.8,0 0,-1.8 1.8,0 0,1.8 1.8,0 0,-1.8 -1.8,0 0,-3.6 -1.8,0 0,1.8 -1.8,0 0,-1.8 -5.4,0 m 10.8,0 0,1.8 1.8,0 0,1.8 1.8,0 0,-1.8 -1.8,0 0,-1.8 -1.8,0 m 25.200003,0 0,1.8 -1.8,0 0,-1.8 1.8,0 m -55.800003,1.8 0,3.6 -1.8,0 0,-3.6 1.8,0 m 36,1.8 0,1.8 1.8,0 0,-1.8 -1.8,0 m 23.400003,0 0,3.6 -1.8,0 0,-3.6 1.8,0 m -84.600003,1.8 0,1.8 1.8,0 0,1.8 1.8,0 0,-1.8 -1.8,0 0,-1.8 -1.8,0 m 34.2,0 0,1.8 -1.8,0 0,-1.8 1.8,0 m -9,5.4 0,3.6 -1.8,0 0,1.8 1.8,0 0,-1.8 1.8,0 0,-3.6 -1.8,0 m 18,0 0,1.8 5.4,0 0,-1.8 1.8,0 0,1.8 -1.8,0 0,1.8 -3.6,0 0,1.8 -7.2,0 0,1.8 1.8,0 0,5.4 1.8,0 0,1.8 -3.6,0 0,1.8 1.8,0 0,1.8 -1.8,0 0,-1.8 -3.6,0 0,1.8 -1.8,0 0,-1.8 1.8,0 0,-1.8 1.8,0 0,-1.8 1.8,0 0,-1.8 -3.6,0 0,1.8 -1.8,0 0,-1.8 1.8,0 0,-1.8 -5.4,0 0,-1.8 1.8,0 0,-3.6 1.8,0 0,1.8 5.4,0 0,-1.8 5.4,0 0,-1.8 -1.8,0 0,-1.8 1.8,0 m 12.6,0 0,1.8 -1.8,0 0,1.8 -1.8,0 0,1.8 1.8,0 0,-1.8 1.8,0 0,1.8 1.8,0 0,3.6 -1.8,0 0,-1.8 -1.8,0 0,1.8 1.8,0 0,3.6 -5.4,0 0,-1.8 1.8,0 0,-3.6 -1.8,0 0,1.8 -1.8,0 0,3.6 1.8,0 0,1.8 3.6,0 0,1.8 -3.6,0 0,1.8 3.6,0 0,-1.8 1.8,0 0,-3.6 1.8,0 0,-3.6 3.6,0 0,3.6 1.8,0 0,1.8 1.8,0 0,-1.8 -1.8,0 0,-5.4 -1.8,0 0,-1.8 -3.6,0 0,-1.8 1.8,0 0,-1.8 -1.8,0 0,-1.8 -1.8,0 m -55.8,1.8 0,1.8 1.8,0 0,-1.8 -1.8,0 m 12.6,0 0,3.6 5.4,0 0,-3.6 -1.8,0 0,1.8 -1.8,0 0,-1.8 -1.8,0 m 45,0 0,1.8 -1.8,0 0,-1.8 1.8,0 m -50.4,1.8 0,3.6 1.8,0 0,1.8 -5.4,0 0,1.8 -1.8,0 0,1.8 1.8,0 0,-1.8 3.6,0 0,3.6 1.8,0 0,-3.6 3.6,0 0,1.8 -1.8,0 0,1.8 1.8,0 0,-1.8 1.8,0 0,-1.8 -1.8,0 0,-3.6 -3.6,0 0,-1.8 1.8,0 0,-1.8 -3.6,0 m 27,3.6 0,1.8 1.8,0 0,-1.8 -1.8,0 m 37.800003,0 0,1.8 1.8,0 0,1.8 1.8,0 0,1.8 1.8,0 0,-1.8 1.8,0 0,-1.8 -1.8,0 0,1.8 -1.8,0 0,-1.8 -1.8,0 0,-1.8 -1.8,0 m -54.000003,3.6 0,1.8 1.8,0 0,-1.8 -1.8,0 m 27,0 0,1.8 -1.8,0 0,-1.8 1.8,0 m 21.6,0 0,3.6 1.8,0 0,-3.6 -1.8,0 m 5.400003,1.8 0,1.8 1.8,0 0,-1.8 -1.8,0 m -41.400003,1.8 0,1.8 -1.8,0 0,-1.8 1.8,0 m 16.2,0 0,3.6 1.8,0 0,-3.6 -1.8,0 m -5.4,5.4 0,5.4 -5.4,0 0,-5.4 5.4,0 m 21.6,0 0,3.6 1.8,0 0,-1.8 1.8,0 0,1.8 -1.8,0 0,1.8 -1.8,0 0,1.8 1.8,0 0,1.8 5.400003,0 0,-1.8 1.8,0 0,3.6 -5.400003,0 0,1.8 -1.8,0 0,-3.6 -1.8,0 0,-1.8 -3.6,0 0,-3.6 -1.8,0 0,1.8 -3.6,0 0,-1.8 1.8,0 0,-1.8 5.4,0 0,-1.8 1.8,0 m 14.400003,0 0,5.4 -5.4,0 0,-5.4 5.4,0 m 3.6,0 0,5.4 -1.8,0 0,-5.4 1.8,0 m -90.000003,1.8 0,12.6 12.6,0 0,-12.6 -12.6,0 m 46.8,0 0,1.8 1.8,0 0,-1.8 -1.8,0 m 9,0 0,1.8 1.8,0 0,5.4 1.8,0 0,1.8 1.8,0 0,1.8 -3.6,0 0,-1.8 -1.8,0 0,1.8 -1.8,0 0,-1.8 1.8,0 0,-5.4 -1.8,0 0,1.8 -1.8,0 0,-3.6 1.8,0 0,-1.8 1.8,0 m 5.4,0 0,3.6 -1.8,0 0,-3.6 1.8,0 m 21.600003,0 0,1.8 1.8,0 0,-1.8 -1.8,0 m -72.000003,1.8 0,9 -9,0 0,-9 9,0 m 12.6,0 0,1.8 -1.8,0 0,-1.8 1.8,0 m 55.800003,0 0,1.8 -1.800003,0 0,1.8 -1.8,0 0,-1.8 1.8,0 0,-1.8 1.800003,0 m -75.600003,1.8 0,5.4 5.4,0 0,-5.4 -5.4,0 m 10.8,0 0,3.6 1.8,0 0,-1.8 1.8,0 0,-1.8 -3.6,0 m 72.000003,1.8 0,1.8 -1.8,0 0,3.6 -1.8,0 0,-5.4 3.6,0 m 5.4,1.8 0,1.8 -3.6,0 0,1.8 -1.8,0 0,-1.8 1.8,0 0,-1.8 3.6,0 m -48.600003,1.8 0,1.8 -1.8,0 0,-1.8 1.8,0 m -10.8,1.8 0,1.8 1.8,0 0,-1.8 -1.8,0 m 3.6,0 0,1.8 1.8,0 0,-1.8 -1.8,0 z"
       style="fill:#000000;stroke:none"
       inkscape:connector-curvature="0" />
  </g>
</svg>
